<svg xmlns="http://www.w3.org/2000/svg" xmlns:xlink="http://www.w3.org/1999/xlink" width="285.656" height="277.947" viewBox="0 0 285.656 277.947">
  <defs>
    <linearGradient id="linear-gradient" x1="0.076" y1="0.033" x2="0.5" y2="1" gradientUnits="objectBoundingBox">
      <stop offset="0" stop-color="#2b1dbf" stop-opacity="0.718"/>
      <stop offset="0.507" stop-color="#4747f5" stop-opacity="0.694"/>
      <stop offset="1" stop-color="#058f95" stop-opacity="0.675"/>
    </linearGradient>
    <filter id="Rectangle_30480" x="0" y="0" width="285.656" height="277.947" filterUnits="userSpaceOnUse">
      <feOffset dx="3" dy="6" input="SourceAlpha"/>
      <feGaussianBlur stdDeviation="12" result="blur"/>
      <feFlood flood-opacity="0.161"/>
      <feComposite operator="in" in2="blur"/>
      <feComposite in="SourceGraphic"/>
    </filter>
    <filter id="Path_157279" x="54.04" y="116.511" width="47.039" height="47.339" filterUnits="userSpaceOnUse">
      <feOffset dx="3" dy="3" input="SourceAlpha"/>
      <feGaussianBlur stdDeviation="5" result="blur-2"/>
      <feFlood flood-opacity="0.322"/>
      <feComposite operator="in" in2="blur-2"/>
      <feComposite in="SourceGraphic"/>
    </filter>
    <filter id="Path_157280" x="75.244" y="116.511" width="45.106" height="47.005" filterUnits="userSpaceOnUse">
      <feOffset dx="3" dy="3" input="SourceAlpha"/>
      <feGaussianBlur stdDeviation="5" result="blur-3"/>
      <feFlood flood-opacity="0.322"/>
      <feComposite operator="in" in2="blur-3"/>
      <feComposite in="SourceGraphic"/>
    </filter>
    <filter id="Path_157281" x="93.252" y="108.508" width="47.039" height="55.342" filterUnits="userSpaceOnUse">
      <feOffset dx="3" dy="3" input="SourceAlpha"/>
      <feGaussianBlur stdDeviation="5" result="blur-4"/>
      <feFlood flood-opacity="0.322"/>
      <feComposite operator="in" in2="blur-4"/>
      <feComposite in="SourceGraphic"/>
    </filter>
    <filter id="Path_157282" x="114.457" y="116.678" width="39.504" height="46.839" filterUnits="userSpaceOnUse">
      <feOffset dx="3" dy="3" input="SourceAlpha"/>
      <feGaussianBlur stdDeviation="5" result="blur-5"/>
      <feFlood flood-opacity="0.322"/>
      <feComposite operator="in" in2="blur-5"/>
      <feComposite in="SourceGraphic"/>
    </filter>
    <filter id="Path_157283" x="125.115" y="116.511" width="47.472" height="47.339" filterUnits="userSpaceOnUse">
      <feOffset dx="3" dy="3" input="SourceAlpha"/>
      <feGaussianBlur stdDeviation="5" result="blur-6"/>
      <feFlood flood-opacity="0.322"/>
      <feComposite operator="in" in2="blur-6"/>
      <feComposite in="SourceGraphic"/>
    </filter>
    <filter id="Path_157284" x="144.926" y="108.309" width="34.902" height="55.208" filterUnits="userSpaceOnUse">
      <feOffset dx="3" dy="3" input="SourceAlpha"/>
      <feGaussianBlur stdDeviation="5" result="blur-7"/>
      <feFlood flood-opacity="0.322"/>
      <feComposite operator="in" in2="blur-7"/>
      <feComposite in="SourceGraphic"/>
    </filter>
    <filter id="Path_157285" x="152.243" y="108.508" width="47.039" height="55.342" filterUnits="userSpaceOnUse">
      <feOffset dx="3" dy="3" input="SourceAlpha"/>
      <feGaussianBlur stdDeviation="5" result="blur-8"/>
      <feFlood flood-opacity="0.322"/>
      <feComposite operator="in" in2="blur-8"/>
      <feComposite in="SourceGraphic"/>
    </filter>
    <filter id="Path_157286" x="172.07" y="112.091" width="40.831" height="51.595" filterUnits="userSpaceOnUse">
      <feOffset dx="3" dy="3" input="SourceAlpha"/>
      <feGaussianBlur stdDeviation="5" result="blur-9"/>
      <feFlood flood-opacity="0.322"/>
      <feComposite operator="in" in2="blur-9"/>
      <feComposite in="SourceGraphic"/>
    </filter>
    <filter id="Path_157287" x="184.445" y="116.752" width="47.537" height="46.767" filterUnits="userSpaceOnUse">
      <feOffset dx="3" dy="3" input="SourceAlpha"/>
      <feGaussianBlur stdDeviation="5" result="blur-10"/>
      <feFlood flood-opacity="0.322"/>
      <feComposite operator="in" in2="blur-10"/>
      <feComposite in="SourceGraphic"/>
    </filter>
  </defs>
  <g id="Group_120844" data-name="Group 120844" transform="translate(-669.762 -5660)">
    <g transform="matrix(1, 0, 0, 1, 669.76, 5660)" filter="url(#Rectangle_30480)">
      <rect id="Rectangle_30480-2" data-name="Rectangle 30480" width="213.656" height="205.947" rx="20" transform="translate(33 30)" fill="url(#linear-gradient)"/>
    </g>
    <g id="Group_98447" data-name="Group 98447" transform="translate(735.802 5780.309)">
      <g transform="matrix(1, 0, 0, 1, -66.04, -120.31)" filter="url(#Path_157279)">
        <path id="Path_157279-2" data-name="Path 157279" d="M8.333,44.2a6.65,6.65,0,0,1,5.336,2.568V44.535h3.668V61.208H14.845a1.176,1.176,0,0,1-1.177-1.177V58.975a6.652,6.652,0,0,1-5.336,2.566C3.766,61.541.3,57.641.3,52.872S3.766,44.2,8.333,44.2M9,47.537c-2.968,0-4.969,2.334-4.969,5.335s2,5.336,4.969,5.336,4.969-2.335,4.969-5.336-2-5.335-4.969-5.335" transform="translate(65.74 84.31)" fill="#fff"/>
      </g>
      <g transform="matrix(1, 0, 0, 1, -66.04, -120.31)" filter="url(#Path_157280)">
        <path id="Path_157280-2" data-name="Path 157280" d="M114.863,44.538h3.669v2.267a5.737,5.737,0,0,1,5.069-2.6c3.867,0,6.369,2.734,6.369,6.969V61.21h-2.492a1.177,1.177,0,0,1-1.177-1.177V51.775c0-2.634-1.334-4.235-3.467-4.235-2.434,0-4.3,1.9-4.3,5.468v8.2h-2.493a1.177,1.177,0,0,1-1.176-1.177Z" transform="translate(-27.62 84.31)" fill="#fff"/>
      </g>
      <g transform="matrix(1, 0, 0, 1, -66.04, -120.31)" filter="url(#Path_157281)">
        <path id="Path_157281-2" data-name="Path 157281" d="M220.191,8.969a6.653,6.653,0,0,1,5.336,2.568V.967h3.667V25.975H226.7a1.176,1.176,0,0,1-1.176-1.177V23.743a6.654,6.654,0,0,1-5.336,2.566c-4.569,0-8.037-3.9-8.037-8.669s3.468-8.67,8.037-8.67m.667,3.335c-2.967,0-4.968,2.334-4.968,5.335s2,5.336,4.968,5.336,4.967-2.335,4.967-5.336-2-5.335-4.967-5.335" transform="translate(-106.9 119.54)" fill="#fff"/>
      </g>
      <g transform="matrix(1, 0, 0, 1, -66.04, -120.31)" filter="url(#Path_157282)">
        <path id="Path_157282-2" data-name="Path 157282" d="M326.724,45.272h3.668v2.968a4.69,4.69,0,0,1,4.4-3.134,7.2,7.2,0,0,1,1.434.133v3.768a5.715,5.715,0,0,0-1.833-.3c-2.1,0-4,1.768-4,5.1v8.135H327.9a1.177,1.177,0,0,1-1.176-1.177v-15.5Z" transform="translate(-200.27 83.57)" fill="#fff"/>
      </g>
      <g transform="matrix(1, 0, 0, 1, -66.04, -120.31)" filter="url(#Path_157283)">
        <path id="Path_157283-2" data-name="Path 157283" d="M393.04,61.541a8.67,8.67,0,1,1,8.736-8.668,8.605,8.605,0,0,1-8.736,8.668m0-3.4a5,5,0,0,0,5-5.268,5.024,5.024,0,1,0-10.037,0,5.006,5.006,0,0,0,5.034,5.268" transform="translate(-247.19 84.31)" fill="#fff"/>
      </g>
      <g transform="matrix(1, 0, 0, 1, -66.04, -120.31)" filter="url(#Path_157284)">
        <path id="Path_157284-2" data-name="Path 157284" d="M493.81,4.788a2.483,2.483,0,0,1-2.468-2.468A2.477,2.477,0,0,1,493.81-.114a2.427,2.427,0,0,1,2.434,2.434,2.434,2.434,0,0,1-2.434,2.468m-1.833,3.634h3.667V25.094h-2.491a1.177,1.177,0,0,1-1.176-1.177Z" transform="translate(-334.42 120.42)" fill="#fff"/>
      </g>
      <g transform="matrix(1, 0, 0, 1, -66.04, -120.31)" filter="url(#Path_157285)">
        <path id="Path_157285-2" data-name="Path 157285" d="M538.909,8.969a6.655,6.655,0,0,1,5.336,2.568V.967h3.668V25.975h-2.491a1.175,1.175,0,0,1-1.177-1.177V23.743a6.657,6.657,0,0,1-5.336,2.566c-4.567,0-8.035-3.9-8.035-8.669s3.468-8.67,8.035-8.67m.667,3.335c-2.966,0-4.967,2.334-4.967,5.335s2,5.336,4.967,5.336,4.969-2.335,4.969-5.336-2-5.335-4.969-5.335" transform="translate(-366.63 119.54)" fill="#fff"/>
      </g>
      <g transform="matrix(1, 0, 0, 1, -66.04, -120.31)" filter="url(#Path_157286)">
        <path id="Path_157286-2" data-name="Path 157286" d="M641.586,27.2H638V24.985h3.589V20.323h2.347v4.662h4.9V27.2h-4.9v9.691c0,2.045.906,2.849,2.783,2.849a6.1,6.1,0,0,0,2.113-.368v2.112a6.659,6.659,0,0,1-2.482.436c-2.849,0-4.761-1.644-4.761-4.83Z" transform="translate(-453.93 103.77)" fill="#fff"/>
      </g>
      <g transform="matrix(1, 0, 0, 1, -66.04, -120.31)" filter="url(#Path_157287)">
        <path id="Path_157287-2" data-name="Path 157287" d="M722.392,45.507l-7.846,16.766H712.7l-7.847-16.766h2.616l6.136,13.312,6.136-13.312Z" transform="translate(-508.41 83.25)" fill="#fff"/>
      </g>
    </g>
  </g>
</svg>
