<svg xmlns="http://www.w3.org/2000/svg" xmlns:xlink="http://www.w3.org/1999/xlink" width="285.656" height="277.947" viewBox="0 0 285.656 277.947">
  <defs>
    <linearGradient id="linear-gradient" x1="0.076" y1="0.033" x2="0.5" y2="1" gradientUnits="objectBoundingBox">
      <stop offset="0" stop-color="#2b1dbf" stop-opacity="0.718"/>
      <stop offset="0.507" stop-color="#4747f5" stop-opacity="0.694"/>
      <stop offset="1" stop-color="#058f95" stop-opacity="0.675"/>
    </linearGradient>
    <filter id="Rectangle_30480" x="0" y="0" width="285.656" height="277.947" filterUnits="userSpaceOnUse">
      <feOffset dx="3" dy="6" input="SourceAlpha"/>
      <feGaussianBlur stdDeviation="12" result="blur"/>
      <feFlood flood-opacity="0.161"/>
      <feComposite operator="in" in2="blur"/>
      <feComposite in="SourceGraphic"/>
    </filter>
    <filter id="Path_157446" x="162.912" y="113.987" width="43.752" height="44.474" filterUnits="userSpaceOnUse">
      <feOffset dy="3" input="SourceAlpha"/>
      <feGaussianBlur stdDeviation="3" result="blur-2"/>
      <feFlood flood-opacity="0.161"/>
      <feComposite operator="in" in2="blur-2"/>
      <feComposite in="SourceGraphic"/>
    </filter>
    <filter id="Path_157447" x="188.68" y="114.021" width="37.615" height="44.507" filterUnits="userSpaceOnUse">
      <feOffset dy="3" input="SourceAlpha"/>
      <feGaussianBlur stdDeviation="3" result="blur-3"/>
      <feFlood flood-opacity="0.161"/>
      <feComposite operator="in" in2="blur-3"/>
      <feComposite in="SourceGraphic"/>
    </filter>
  </defs>
  <g id="Group_120841" data-name="Group 120841" transform="translate(-971.524 -5954.053)">
    <g transform="matrix(1, 0, 0, 1, 971.52, 5954.05)" filter="url(#Rectangle_30480)">
      <rect id="Rectangle_30480-2" data-name="Rectangle 30480" width="213.656" height="205.947" rx="20" transform="translate(33 30)" fill="url(#linear-gradient)"/>
    </g>
    <g id="_20190528211053_LG_WebOS_New" data-name="20190528211053!LG_WebOS_New" transform="translate(1034.26 6073.26)">
      <g id="Group_98244" data-name="Group 98244" transform="translate(0 0)">
        <g id="Group_98243" data-name="Group 98243">
          <path id="Path_157441" data-name="Path 157441" d="M158.285,48.063h11.063V42.942H156.84V21.9H150.8V48.063Z" transform="translate(-150.8 -21.506)" fill="#fff"/>
          <path id="Path_157442" data-name="Path 157442" d="M222.073,37.278H227v4.563a13.631,13.631,0,0,1-4.366.689c-5.449,0-7.255-2.758-7.255-8.371,0-5.351,1.74-8.5,7.156-8.5,3.02,0,4.76.952,6.172,2.757l3.742-3.447c-2.3-3.283-6.3-4.268-10.045-4.268-8.469,0-12.9,4.629-12.9,13.426,0,8.765,4,13.525,12.868,13.525,4.071,0,8.043-1.05,10.177-2.561v-12.7H222.073Z" transform="translate(-190.23 -20.7)" fill="#fff"/>
        </g>
      </g>
      <g id="Group_98245" data-name="Group 98245" transform="translate(50.127 1.28)">
        <path id="Path_157443" data-name="Path 157443" d="M326.676,47.133h.689l-5.581,17.5H320.9l-5.449-16.84h-.066L309.9,64.63h-.952L303.5,47.1h.689l5.22,16.84h.066l5.417-16.84h1.05l5.384,16.84h.066Z" transform="translate(-303.5 -39.714)" fill="#fff" stroke="#fff" stroke-width="1"/>
        <path id="Path_157444" data-name="Path 157444" d="M378.757,55.19c.066,4.694,1.937,8.338,6.927,8.338a6.455,6.455,0,0,0,6.861-5.778h.689a7.111,7.111,0,0,1-7.452,6.467c-5.417.066-7.682-3.939-7.682-9.159,0-5.843,3.709-9.159,7.682-9.159,5.449,0,7.879,4.5,7.682,9.29Zm13.952-.657c.033-4.3-2.4-7.944-6.927-7.944-3.775,0-6.828,3.02-7.058,7.944Z" transform="translate(-353.611 -38.908)" fill="#fff" stroke="#fff" stroke-width="1"/>
        <path id="Path_157445" data-name="Path 157445" d="M434.116,45.177c.886,2.987,3.119,5.285,6.664,5.285,4.53,0,6.8-3.939,6.8-8.437,0-4.071-1.97-8.5-6.8-8.5-4.268,0-7.091,3.086-7.091,8.5v.164H433V26.4h.689V38.119h.066A6.841,6.841,0,0,1,440.78,32.8c4.826,0,7.452,4.3,7.452,9.192,0,5.285-2.823,9.126-7.452,9.126a7.6,7.6,0,0,1-7.353-5.975h.033" transform="translate(-390.488 -25.809)" fill="#fff" stroke="#fff" stroke-width="1"/>
        <g transform="matrix(1, 0, 0, 1, -112.86, -120.49)" filter="url(#Path_157446)">
          <path id="Path_157446-2" data-name="Path 157446" d="M497.276,24.6c8.043,0,12.376,5.81,12.376,12.737s-4.333,12.737-12.376,12.737S484.9,44.264,484.9,37.337C484.9,30.443,489.233,24.6,497.276,24.6Zm0,24.818c7.222,0,11.555-5.055,11.621-12.048-.066-7.025-4.4-12.048-11.621-12.048s-11.555,5.055-11.621,12.048C485.721,44.362,490.054,49.418,497.276,49.418Z" transform="translate(-312.49 95.89)" fill="#ff1414" stroke="#ff1414" stroke-width="1"/>
        </g>
        <g transform="matrix(1, 0, 0, 1, -112.86, -120.49)" filter="url(#Path_157447)">
          <path id="Path_157447-2" data-name="Path 157447" d="M580.828,32.086c-.164-4.99-3.611-6.7-8.141-6.7-3.545,0-7.846,1.215-7.846,5.581,0,4.4,4.333,4.891,8.634,5.909,4.662,1.149,8.535,1.707,8.535,6.8,0,4.6-4.563,6.533-8.831,6.533-5.679,0-9.881-2.528-9.783-8.666h.689c0,5.81,3.742,7.977,9.061,7.977,3.939,0,8.141-1.707,8.141-5.909,0-4.891-4.891-5.318-8.765-6.237-4.071-.919-8.4-1.641-8.4-6.4,0-4.826,4.53-6.27,8.535-6.27,4.891,0,8.568,1.937,8.831,7.386Z" transform="translate(-365.22 95.82)" fill="#ff1414" stroke="#ff1414" stroke-width="1"/>
        </g>
      </g>
    </g>
  </g>
</svg>
