<svg xmlns="http://www.w3.org/2000/svg" xmlns:xlink="http://www.w3.org/1999/xlink" width="285.656" height="277.947" viewBox="0 0 285.656 277.947">
  <defs>
    <linearGradient id="linear-gradient" x1="0.076" y1="0.033" x2="0.5" y2="1" gradientUnits="objectBoundingBox">
      <stop offset="0" stop-color="#2b1dbf" stop-opacity="0.718"/>
      <stop offset="0.507" stop-color="#4747f5" stop-opacity="0.694"/>
      <stop offset="1" stop-color="#058f95" stop-opacity="0.675"/>
    </linearGradient>
    <filter id="Rectangle_30480" x="0" y="0" width="285.656" height="277.947" filterUnits="userSpaceOnUse">
      <feOffset dx="3" dy="6" input="SourceAlpha"/>
      <feGaussianBlur stdDeviation="12" result="blur"/>
      <feFlood flood-opacity="0.161"/>
      <feComposite operator="in" in2="blur"/>
      <feComposite in="SourceGraphic"/>
    </filter>
  </defs>
  <g id="Group_120846" data-name="Group 120846" transform="translate(-368 -5954.053)">
    <g transform="matrix(1, 0, 0, 1, 368, 5954.05)" filter="url(#Rectangle_30480)">
      <rect id="Rectangle_30480-2" data-name="Rectangle 30480" width="213.656" height="205.947" rx="20" transform="translate(33 30)" fill="url(#linear-gradient)"/>
    </g>
    <g id="Samsung_Smart_TV_1_" data-name="Samsung Smart TV (1)" transform="translate(436.243 6060.043)">
      <g id="Group_98248" data-name="Group 98248" transform="translate(0 0)">
        <path id="Path_157476" data-name="Path 157476" d="M117.53,108.4v12.345l-9.73-6.9Z" transform="translate(-74.845 -77.433)" fill="#244a9a"/>
        <path id="Path_157477" data-name="Path 157477" d="M98.6,108.4v12.345l9.625-6.9Z" transform="translate(-75.27 -77.433)" fill="#95a948"/>
        <path id="Path_157478" data-name="Path 157478" d="M108.354,96.6,95.8,103.609h12.554Z" transform="translate(-75.399 -77.978)" fill="#ffde14"/>
        <path id="Path_157479" data-name="Path 157479" d="M107.8,96.6l12.554,7.009H107.8Z" transform="translate(-74.845 -77.978)" fill="#f0c3c0"/>
        <path id="Path_157480" data-name="Path 157480" d="M108.35,113.6,95.9,122.388h12.45Z" transform="translate(-75.395 -77.193)" fill="#d3d80e"/>
        <path id="Path_157481" data-name="Path 157481" d="M107.8,113.6l12.554,8.788H107.8Z" transform="translate(-74.845 -77.193)" fill="#2dafe6"/>
        <path id="Path_157482" data-name="Path 157482" d="M95.9,122h12.45v8.579Z" transform="translate(-75.395 -76.805)" fill="#fbef82"/>
        <path id="Path_157483" data-name="Path 157483" d="M120.354,122H107.8v8.579Z" transform="translate(-74.845 -76.805)" fill="#afdff9"/>
        <path id="Path_157484" data-name="Path 157484" d="M95.9,103.3h12.554v7.009Z" transform="translate(-75.395 -77.668)" fill="#f18825"/>
        <path id="Path_157485" data-name="Path 157485" d="M120.354,103.3H107.8v7.009Z" transform="translate(-74.845 -77.668)" fill="#e94287"/>
        <path id="Path_157486" data-name="Path 157486" d="M120.9,122.864V103.3l-12.554,7.009L95.9,103.3v19.564l2.825,1.988V108.636l9.625,5.44,9.73-5.44v16.216Z" transform="translate(-75.395 -77.668)" fill="#fff"/>
        <path id="Path_157487" data-name="Path 157487" d="M155.613,115.745a6.34,6.34,0,0,0,2.72-1.988,6.136,6.136,0,0,0,1.255-3.871,6.854,6.854,0,0,0-.523-2.615,5.837,5.837,0,0,0-1.465-2.092,7.613,7.613,0,0,0-2.406-1.36,9.914,9.914,0,0,0-3.139-.418H144v21.552h2.825V106.225h5.231a5.236,5.236,0,0,1,3.452.942,3.468,3.468,0,0,1,1.151,2.72,3.321,3.321,0,0,1-1.151,2.72,5.638,5.638,0,0,1-3.452.942H148.6v2.72h4.185l3.976,8.579H159.9Z" transform="translate(-73.173 -77.664)" fill="#fff"/>
        <path id="Path_157488" data-name="Path 157488" d="M161.2,103.5v2.72h6.486v18.727h2.825V106.22H177V103.5Z" transform="translate(-72.378 -77.659)" fill="#fff"/>
        <path id="Path_157489" data-name="Path 157489" d="M133.271,103.5h-2.406L122.6,124.947h3.034l2.615-6.7H136.1l2.615,6.7h2.929Zm-4.08,12.24,2.929-7.637,2.929,7.637Z" transform="translate(-74.161 -77.659)" fill="#fff"/>
        <path id="Path_157490" data-name="Path 157490" d="M92.516,116.6a5.937,5.937,0,0,0-1.255-1.883,8.7,8.7,0,0,0-1.883-1.36,9.186,9.186,0,0,0-2.406-.732L83.1,112.1a5.516,5.516,0,0,1-1.255-.314,4.241,4.241,0,0,1-.942-.523,5.8,5.8,0,0,1-.628-.837,3.9,3.9,0,0,1-.209-1.255,2.617,2.617,0,0,1,.314-1.36,4.1,4.1,0,0,1,.837-1.046,6.67,6.67,0,0,1,1.465-.837,5.793,5.793,0,0,1,1.883-.209,5.322,5.322,0,0,1,2.3.418,4.139,4.139,0,0,1,1.569,1.046,2.171,2.171,0,0,1,.628,1.046,3.657,3.657,0,0,1,.314,1.255l.1.523h2.825l-.1-.732a6.776,6.776,0,0,0-.523-2.2,9.481,9.481,0,0,0-1.151-1.674,6.821,6.821,0,0,0-2.615-1.779,8.862,8.862,0,0,0-6.277-.1,7.55,7.55,0,0,0-2.511,1.465,12.041,12.041,0,0,0-1.465,1.779,4.97,4.97,0,0,0-.628,2.511,5.322,5.322,0,0,0,.418,2.3,6.873,6.873,0,0,0,1.255,1.779,6.477,6.477,0,0,0,1.779,1.151,6.775,6.775,0,0,0,2.2.523l3.766.523a6,6,0,0,1,1.465.418,3.758,3.758,0,0,1,1.046.732,2.471,2.471,0,0,1,.628.942A3.761,3.761,0,0,1,89.8,118.8a2.617,2.617,0,0,1-.314,1.36,3.758,3.758,0,0,1-.732,1.046,4.821,4.821,0,0,1-1.779.942,8.917,8.917,0,0,1-2.406.314,5.145,5.145,0,0,1-2.2-.418,5,5,0,0,1-1.779-1.046,3.762,3.762,0,0,1-.837-1.255,3.405,3.405,0,0,1-.418-1.465l-.1-.628H76.3l.1.732a9.048,9.048,0,0,0,.628,2.406,8.386,8.386,0,0,0,1.36,1.988,6.842,6.842,0,0,0,2.72,1.779,9.216,9.216,0,0,0,3.452.628,11.946,11.946,0,0,0,3.452-.523,6.625,6.625,0,0,0,2.72-1.674,6.873,6.873,0,0,0,1.255-1.779,6.321,6.321,0,0,0,.523-2.511,2.128,2.128,0,0,0,0-2.092" transform="translate(-76.3 -77.682)" fill="#fff"/>
        <path id="Path_157491" data-name="Path 157491" d="M203.875,125.056h1.883l8.265-21.656h-2.2l-7.009,18.622L197.6,103.4H181.8v1.988h6.8v19.668h1.988V105.388h5.649Z" transform="translate(-71.427 -77.664)" fill="#fff"/>
        <path id="Path_157492" data-name="Path 157492" d="M117.53,108.636v16.216l2.825-1.988V103.3L107.8,110.309v3.766Z" transform="translate(-74.845 -77.668)" fill="#fff"/>
        <g id="Group_98249" data-name="Group 98249" transform="translate(0.001)">
          <path id="Path_157493" data-name="Path 157493" d="M15.983,113.345a2.391,2.391,0,0,1-1.674-2.511v-.314c0-1.779.942-2.72,2.929-2.72h.942c1.569,0,2.511.628,2.511,2.3a.732.732,0,1,1-1.465,0c0-.628-.418-.942-1.046-.942h-.942c-1.046,0-1.569.418-1.569,1.36v.314a1.159,1.159,0,0,0,.837,1.151l2.72,1.046A2.527,2.527,0,0,1,21,115.646v.523c0,1.779-.942,2.825-2.929,2.825H16.611c-1.569,0-2.511-.628-2.511-2.3a.661.661,0,0,1,.732-.732.661.661,0,0,1,.732.732c0,.628.418.942,1.046.942H18.18c1.046,0,1.569-.523,1.569-1.465v-.523a1.331,1.331,0,0,0-.732-1.255Z" transform="translate(-14.1 -107.8)" fill="#fff"/>
          <path id="Path_157494" data-name="Path 157494" d="M25.748,110.7a2.282,2.282,0,0,1,2.511,2.406v4.917a.661.661,0,0,1-.732.732H24.7c-1.465,0-2.3-.628-2.3-2.092v-1.151c0-1.465.942-2.092,2.3-2.092h2.2v-.314a.938.938,0,0,0-1.046-1.046H23.865c-.418,0-.732-.209-.732-.628s.314-.628.732-.628h1.883Zm1.046,6.7v-2.72H24.6c-.628,0-.942.314-.942.837v1.151a.855.855,0,0,0,.942.837h2.2Z" transform="translate(-13.717 -107.666)" fill="#fff"/>
          <path id="Path_157495" data-name="Path 157495" d="M37.533,113.525a1.281,1.281,0,0,0-1.465-1.465h-.837v6.173a.732.732,0,0,1-1.465,0V112.06h-2.3v6.173a.732.732,0,0,1-1.465,0v-6.8a.661.661,0,0,1,.732-.732h5.336a2.54,2.54,0,0,1,2.825,2.825v4.708a.732.732,0,0,1-1.465,0v-4.708Z" transform="translate(-13.366 -107.666)" fill="#fff"/>
          <path id="Path_157496" data-name="Path 157496" d="M42.7,118.87c-1.465,0-2.3-.523-2.3-1.883a.661.661,0,0,1,.732-.732c.523,0,.628.314.732.732,0,.314.314.628.942.628h1.255c.732,0,.942-.418.942-.837v-.523c0-.418-.209-.523-.523-.732l-2.406-.628a1.8,1.8,0,0,1-1.36-1.883v-.418c0-1.465.837-2.092,2.3-2.092h.837c1.465,0,2.3.523,2.3,1.883,0,.418-.1.732-.732.732-.523,0-.628-.314-.732-.732,0-.314-.314-.628-.837-.628h-.837c-.732,0-.942.418-.942.837v.418c0,.314.209.523.523.732l2.406.628a1.814,1.814,0,0,1,1.465,1.883v.523c0,1.465-.837,2.092-2.3,2.092Z" transform="translate(-12.885 -107.675)" fill="#fff"/>
          <path id="Path_157497" data-name="Path 157497" d="M49.155,115.94A1.281,1.281,0,0,0,50.62,117.4H52.5v-6.173a.732.732,0,0,1,1.465,0v6.8a.661.661,0,0,1-.732.732H50.725A2.5,2.5,0,0,1,47.9,115.94v-4.708a.732.732,0,0,1,1.465,0v4.708Z" transform="translate(-12.539 -107.675)" fill="#fff"/>
          <path id="Path_157498" data-name="Path 157498" d="M60.512,113.525a1.281,1.281,0,0,0-1.465-1.465H57.165v6.173a.732.732,0,0,1-1.465,0v-6.8a.661.661,0,0,1,.732-.732h2.511a2.54,2.54,0,0,1,2.825,2.825v4.708a.732.732,0,0,1-1.465,0v-4.708Z" transform="translate(-12.178 -107.666)" fill="#fff"/>
          <path id="Path_157499" data-name="Path 157499" d="M69.663,119.588a2.771,2.771,0,0,1-2.929,3.034H65.06a.692.692,0,0,1-.732-.628c0-.418.314-.628.732-.628h1.779a1.511,1.511,0,0,0,1.569-1.674v-.837H66.525a2.54,2.54,0,0,1-2.825-2.825v-2.2a2.724,2.724,0,0,1,2.929-3.034H69.14a.661.661,0,0,1,.732.732v8.056Zm-3.139-7.637c-1.046,0-1.465.732-1.465,1.674v2.2a1.281,1.281,0,0,0,1.465,1.465h1.883v-5.336Z" transform="translate(-11.809 -107.661)" fill="#fff"/>
        </g>
      </g>
    </g>
  </g>
</svg>
