<svg xmlns="http://www.w3.org/2000/svg" xmlns:xlink="http://www.w3.org/1999/xlink" width="285.656" height="277.947" viewBox="0 0 285.656 277.947">
  <defs>
    <linearGradient id="linear-gradient" x1="0.076" y1="0.033" x2="0.5" y2="1" gradientUnits="objectBoundingBox">
      <stop offset="0" stop-color="#2b1dbf" stop-opacity="0.718"/>
      <stop offset="0.507" stop-color="#4747f5" stop-opacity="0.694"/>
      <stop offset="1" stop-color="#058f95" stop-opacity="0.675"/>
    </linearGradient>
    <filter id="Rectangle_30480" x="0" y="0" width="285.656" height="277.947" filterUnits="userSpaceOnUse">
      <feOffset dx="3" dy="6" input="SourceAlpha"/>
      <feGaussianBlur stdDeviation="12" result="blur"/>
      <feFlood flood-opacity="0.161"/>
      <feComposite operator="in" in2="blur"/>
      <feComposite in="SourceGraphic"/>
    </filter>
    <filter id="Path_157267" x="75" y="95.001" width="130.65" height="81.467" filterUnits="userSpaceOnUse">
      <feOffset dy="3" input="SourceAlpha"/>
      <feGaussianBlur stdDeviation="3" result="blur-2"/>
      <feFlood flood-opacity="0.161"/>
      <feComposite operator="in" in2="blur-2"/>
      <feComposite in="SourceGraphic"/>
    </filter>
  </defs>
  <g id="Group_120845" data-name="Group 120845" transform="translate(-368 -5660)">
    <g transform="matrix(1, 0, 0, 1, 368, 5660)" filter="url(#Rectangle_30480)">
      <rect id="Rectangle_30480-2" data-name="Rectangle 30480" width="213.656" height="205.947" rx="20" transform="translate(33 30)" fill="url(#linear-gradient)"/>
    </g>
    <g transform="matrix(1, 0, 0, 1, 368, 5660)" filter="url(#Path_157267)">
      <path id="Path_157267-2" data-name="Path 157267" d="M765.742,72.728a4.708,4.708,0,1,1,4.708-4.708,4.708,4.708,0,0,1-4.708,4.708m-51.839,0a4.708,4.708,0,1,1,4.708-4.708,4.708,4.708,0,0,1-4.708,4.708m53.5-28.248,9.416-16.233a1.943,1.943,0,1,0-3.384-1.913l-9.514,16.429a57.466,57.466,0,0,0-24.079-5.2,58.435,58.435,0,0,0-24.129,5.149l-9.563-16.429a1.943,1.943,0,0,0-3.384,1.913l9.367,16.233A55.47,55.47,0,0,0,683.4,88.765H796.05A55.248,55.248,0,0,0,767.409,44.48" transform="translate(-599.4 75.7)" fill="#3ddc84"/>
    </g>
  </g>
</svg>
