<svg xmlns="http://www.w3.org/2000/svg" width="46" height="46" viewBox="0 0 46 46">
  <g id="Group_120789" data-name="Group 120789" transform="translate(3367 10977)">
    <rect id="Rectangle_35304" data-name="Rectangle 35304" width="46" height="46" transform="translate(-3367 -10977)" fill="none" opacity="0"/>
    <g id="podcast" transform="translate(-3367.792 -10976.469)">
      <path id="Path_161320" data-name="Path 161320" d="M37.394,17.332H35.247c-.027-1.476-.08-2.692-.16-4.567-.04-.971-.086-2.114-.146-3.563A7.717,7.717,0,0,0,27.382,1.57,7.607,7.607,0,0,0,19.81,9.036c-.02,1.675-.033,2.965-.033,4.062-.007,1.709.013,2.932.066,4.235H17.277a1.773,1.773,0,0,0-1.768,1.861l.06,1.223c.04.8.086,1.7.133,2.759a12.208,12.208,0,0,0,9.281,11.368l.007,4.148-4,.007c-1.549,0-2.839,1.436-3,3.337a.527.527,0,0,0,.073.3,4.313,4.313,0,0,0-.073.512.469.469,0,0,0,.126.366.478.478,0,0,0,.352.153H36.55a.478.478,0,0,0,.352-.153.494.494,0,0,0,.126-.366,4.425,4.425,0,0,0-.073-.519.506.506,0,0,0,.073-.293,4.09,4.09,0,0,0-.977-2.393,2.726,2.726,0,0,0-2.028-.957H31.165c-.04-1.436-.086-2.865-.12-4.295a12.186,12.186,0,0,0,8.669-11.834c.007-1.137.007-2.081.007-2.912a2.331,2.331,0,0,0-2.327-2.314Zm-3.258-4.527c.146,3.523.2,4.713.173,9.719a6.713,6.713,0,0,1-6.588,6.927,6.61,6.61,0,0,1-6.608-6.3c-.053-1.17-.106-2.154-.146-3.018-.153-2.978-.226-4.481-.226-7.133l13.382-.592c0,.133.007.266.013.4ZM27.4,2.527A6.692,6.692,0,0,1,33.99,9.242c.033.831.06,1.556.086,2.207l-13.343.592c.007-.858.013-1.828.027-2.992A6.652,6.652,0,0,1,27.4,2.527ZM19.025,42.4a2.235,2.235,0,0,1,1.968-1.941l13.03-.013A2.237,2.237,0,0,1,35.991,42.4Zm11.062-7.778c.033,1.35.073,2.706.113,4.055l-4.261.007-.007-3.962c.133.02.266.033.4.053l.133.02c.093.007.186.013.273.027s.2.02.306.02c.073.007.14.007.213.007.126.007.253.007.386.007h.173c.153,0,.306-.007.459-.013.04,0,.08-.007.126-.007q.249-.01.5-.04c.027,0,.06-.007.086-.007.372-.04.745-.093,1.1-.166ZM38.75,22.551a11.219,11.219,0,0,1-8.483,11.056c-.12.027-.239.06-.359.08-.093.02-.193.033-.286.053s-.186.033-.279.047l-.319.04c-.086.013-.173.02-.253.027-.106.013-.219.02-.332.027-.086.007-.173.013-.259.013-.106.007-.206.007-.312.007h-.319c-.08,0-.16,0-.239-.007-.14-.007-.273-.013-.412-.027-.053-.007-.106-.007-.16-.013-.179-.013-.359-.04-.538-.06a.05.05,0,0,1-.033-.007c-.206-.027-.406-.066-.6-.106h-.013a11.233,11.233,0,0,1-8.888-10.55c-.053-1.064-.093-1.968-.133-2.766l-.066-1.223a.771.771,0,0,1,.226-.6.794.794,0,0,1,.592-.253h2.606c.033.771.073,1.615.126,2.626.047.864.093,1.842.146,3.012a7.567,7.567,0,0,0,7.565,7.213,7.665,7.665,0,0,0,7.546-7.885c.007-.871.007-1.629.007-2.3,0-1.05,0-1.908-.007-2.666H37.4a1.363,1.363,0,0,1,1.363,1.356c0,.824-.007,1.768-.013,2.905Z" transform="translate(-3.344)" fill="#fff" stroke="#fff" stroke-width="0.4"/>
      <path id="Path_161321" data-name="Path 161321" d="M27.4,34.055a2.647,2.647,0,0,0,1.748,1.1c.02,0,.033.007.053.007a.4.4,0,0,0,.047-.791,1.892,1.892,0,0,1-1.21-.784,4.6,4.6,0,0,1-.665-1.509,12.145,12.145,0,0,1-.432-4,.4.4,0,1,0-.791-.047,13.02,13.02,0,0,0,.459,4.268,5.472,5.472,0,0,0,.791,1.755Z" transform="translate(-6.903 -8.745)" fill="#fff" stroke="#fff" stroke-width="0.4"/>
      <path id="Path_161322" data-name="Path 161322" d="M33.589,38.818h.08a.4.4,0,0,0,0-.8h-.08a.4.4,0,0,0-.4.4A.4.4,0,0,0,33.589,38.818Z" transform="translate(-9.271 -12.218)" fill="#fff" stroke="#fff" stroke-width="0.4"/>
      <path id="Path_161323" data-name="Path 161323" d="M28.532,8.617a.78.78,0,0,0,.957.14.691.691,0,0,0,.226-.917.791.791,0,0,0-.6-.352,1.384,1.384,0,0,0-.7.14l.007.013A.892.892,0,0,0,28.532,8.617Z" transform="translate(-7.638 -1.981)" fill="#fff" stroke="#fff" stroke-width="0.4"/>
      <path id="Path_161324" data-name="Path 161324" d="M37.132,8.287a.78.78,0,0,0,.957.14.691.691,0,0,0,.226-.917.791.791,0,0,0-.6-.352,1.384,1.384,0,0,0-.7.14l.007.013a.892.892,0,0,0,.12.977Z" transform="translate(-10.521 -1.871)" fill="#fff" stroke="#fff" stroke-width="0.4"/>
      <path id="Path_161325" data-name="Path 161325" d="M39.731,11.737a.78.78,0,0,0,.957.14.691.691,0,0,0,.226-.917.791.791,0,0,0-.6-.352,1.45,1.45,0,0,0-.7.133l.007.013A.886.886,0,0,0,39.731,11.737Z" transform="translate(-11.392 -3.027)" fill="#fff" stroke="#fff" stroke-width="0.4"/>
      <path id="Path_161326" data-name="Path 161326" d="M29.852,11.037l.007.013a.864.864,0,0,0,.113.977.78.78,0,0,0,.957.14.691.691,0,0,0,.226-.917.791.791,0,0,0-.6-.352,1.346,1.346,0,0,0-.7.14Z" transform="translate(-8.121 -3.124)" fill="#fff" stroke="#fff" stroke-width="0.4"/>
      <path id="Path_161327" data-name="Path 161327" d="M28.291,14.907a.78.78,0,0,0,.957.14.691.691,0,0,0,.226-.917.791.791,0,0,0-.6-.352,1.384,1.384,0,0,0-.7.14l.007.013A.877.877,0,0,0,28.291,14.907Z" transform="translate(-7.557 -4.09)" fill="#fff" stroke="#fff" stroke-width="0.4"/>
      <path id="Path_161328" data-name="Path 161328" d="M38.5,13.407a1.384,1.384,0,0,0-.7.14l.007.013a.864.864,0,0,0,.113.977.78.78,0,0,0,.957.14.691.691,0,0,0,.226-.917.751.751,0,0,0-.6-.352Z" transform="translate(-10.782 -3.966)" fill="#fff" stroke="#fff" stroke-width="0.4"/>
      <path id="Path_161329" data-name="Path 161329" d="M32.771,9.3a.78.78,0,0,0,.957.14.691.691,0,0,0,.226-.917.791.791,0,0,0-.6-.352,1.384,1.384,0,0,0-.7.14l.007.013a.88.88,0,0,0,.12.977Z" transform="translate(-9.059 -2.209)" fill="#fff" stroke="#fff" stroke-width="0.4"/>
      <path id="Path_161330" data-name="Path 161330" d="M35.571,11.787a.78.78,0,0,0,.957.14.691.691,0,0,0,.226-.917.791.791,0,0,0-.6-.352,1.45,1.45,0,0,0-.7.133l.007.013a.889.889,0,0,0,.12.984Z" transform="translate(-9.997 -3.044)" fill="#fff" stroke="#fff" stroke-width="0.4"/>
      <path id="Path_161331" data-name="Path 161331" d="M33.041,5.8a.78.78,0,0,0,.957.14.691.691,0,0,0,.226-.917.791.791,0,0,0-.6-.352,1.45,1.45,0,0,0-.7.133l.007.013A.889.889,0,0,0,33.041,5.8Z" transform="translate(-9.149 -1.036)" fill="#fff" stroke="#fff" stroke-width="0.4"/>
      <path id="Path_161332" data-name="Path 161332" d="M33.5,13.117a1.45,1.45,0,0,0-.7.133l.007.013a.864.864,0,0,0,.113.977.78.78,0,0,0,.957.14.691.691,0,0,0,.226-.917.8.8,0,0,0-.6-.346Z" transform="translate(-9.106 -3.869)" fill="#fff" stroke="#fff" stroke-width="0.4"/>
      <path id="Path_161333" data-name="Path 161333" d="M29.111,5.7a.78.78,0,0,0,.957.14.691.691,0,0,0,.226-.917.791.791,0,0,0-.6-.352,1.45,1.45,0,0,0-.7.133l.007.013a.889.889,0,0,0,.12.984Z" transform="translate(-7.832 -1.003)" fill="#fff" stroke="#fff" stroke-width="0.4"/>
      <path id="Path_161334" data-name="Path 161334" d="M26.131,11.537a.78.78,0,0,0,.957.14.691.691,0,0,0,.226-.917.791.791,0,0,0-.6-.352,1.45,1.45,0,0,0-.7.133l.007.013A.889.889,0,0,0,26.131,11.537Z" transform="translate(-6.833 -2.96)" fill="#fff" stroke="#fff" stroke-width="0.4"/>
      <path id="Path_161335" data-name="Path 161335" d="M24.671,14.337a.78.78,0,0,0,.957.14.691.691,0,0,0,.226-.917.791.791,0,0,0-.6-.352,1.384,1.384,0,0,0-.7.14l.007.013a.88.88,0,0,0,.12.977Z" transform="translate(-6.344 -3.899)" fill="#fff" stroke="#fff" stroke-width="0.4"/>
      <path id="Path_161336" data-name="Path 161336" d="M48.767,9.732a4.063,4.063,0,0,1,.346,6.09.477.477,0,1,0,.671.678,5.033,5.033,0,0,0-.432-7.532.477.477,0,0,0-.671.08A.5.5,0,0,0,48.767,9.732Z" transform="translate(-14.431 -2.445)" fill="#fff" stroke="#fff" stroke-width="0.4"/>
      <path id="Path_161337" data-name="Path 161337" d="M54.317,11.388A8.44,8.44,0,0,0,51.7,6.216a.48.48,0,1,0-.652.7,7.35,7.35,0,0,1,1.064,9.547.479.479,0,0,0,.126.665.508.508,0,0,0,.273.086.468.468,0,0,0,.392-.206A8.415,8.415,0,0,0,54.317,11.388Z" transform="translate(-15.207 -1.515)" fill="#fff" stroke="#fff" stroke-width="0.4"/>
      <path id="Path_161338" data-name="Path 161338" d="M14.845,16.517a.477.477,0,1,0,.671-.678,4.063,4.063,0,0,1,.346-6.09A.478.478,0,0,0,15.271,9a5.012,5.012,0,0,0-.425,7.519Z" transform="translate(-2.62 -2.455)" fill="#fff" stroke="#fff" stroke-width="0.4"/>
      <path id="Path_161339" data-name="Path 161339" d="M10.882,11.495a7.456,7.456,0,0,1,2.307-4.574.48.48,0,0,0-.652-.7,8.3,8.3,0,0,0-1.21,10.79.486.486,0,0,0,.392.206.472.472,0,0,0,.273-.086.479.479,0,0,0,.126-.665,7.465,7.465,0,0,1-1.237-4.966Z" transform="translate(-1.456 -1.515)" fill="#fff" stroke="#fff" stroke-width="0.4"/>
    </g>
  </g>
</svg>
