<svg xmlns="http://www.w3.org/2000/svg" width="46" height="46" viewBox="0 0 46 46">
  <g id="Group_120798" data-name="Group 120798" transform="translate(3367 10977)">
    <rect id="Rectangle_35313" data-name="Rectangle 35313" width="46" height="46" transform="translate(-3367 -10977)" fill="none" opacity="0"/>
    <g id="project-management" transform="translate(-3366.11 -10976.475)">
      <path id="Path_161382" data-name="Path 161382" d="M42.7,25.634a3.4,3.4,0,0,0-.348-.551c-.066-.085-.138-.171-.21-.249l-.184-.2-.715-.774a5.43,5.43,0,0,0-1.628-1.234,2.046,2.046,0,0,0-1.391-.158,1.692,1.692,0,0,0-1.024.873,1.437,1.437,0,0,0,0,1.26,2.256,2.256,0,0,0,.532.676,1.983,1.983,0,0,0,.315.256.1.1,0,0,1,.059.046.142.142,0,0,1-.007.072.458.458,0,0,1-.053.105c-.026.046-.046.085-.072.125a1.869,1.869,0,0,0-.223.564,7.879,7.879,0,0,0-2.435-1.556,8.91,8.91,0,0,0-1.286-.407.738.738,0,0,0,.105-.217,3.514,3.514,0,0,0,.19-.965,3.433,3.433,0,0,0-.053-.9,2.483,2.483,0,0,0-.184-.584,1.817,1.817,0,0,0-.2-.348,2.1,2.1,0,0,0-.289-.3,2.354,2.354,0,0,0-.82-.446,2.262,2.262,0,0,0-1.116-.1,1.741,1.741,0,0,0-1.05.7,2.747,2.747,0,0,0-.427.958,3.066,3.066,0,0,0,.066,1.569,1.661,1.661,0,0,0,.19.459c-.072.007-.151.013-.223.026a8.131,8.131,0,0,0-2.73.834,7.136,7.136,0,0,0-1.175.8c-.046-.059-.112-.131-.19-.217a1.919,1.919,0,0,1-.263-.328.363.363,0,0,1-.013-.348c.053-.118.23-.223.525-.427a1.462,1.462,0,0,0,.433-.473,1.1,1.1,0,0,0,.1-.794.553.553,0,0,0-.039-.092,60.718,60.718,0,0,0,.217-8.126C27.068,14,27.042,12.5,27,10.9c-.026-.8-.053-1.621-.072-2.442a5.369,5.369,0,0,0-.144-1.332A2.3,2.3,0,0,0,25.992,5.9a3.657,3.657,0,0,0-2.337-.624c-.7.039-1.286.118-1.792.164a12.438,12.438,0,0,0-1.431.21A3.58,3.58,0,0,0,19.947,4.6a2.511,2.511,0,0,0-.551-.6,3.438,3.438,0,0,0-.656-.453,8.552,8.552,0,0,0-3.059-.965,13.19,13.19,0,0,0-3.216-.033,8.83,8.83,0,0,0-2.993.84,3.735,3.735,0,0,0-.656.4,3.221,3.221,0,0,0-.308.236,2.931,2.931,0,0,0-.282.3,4.149,4.149,0,0,0-.6.985,6.214,6.214,0,0,0-.86-.131,9.058,9.058,0,0,0-3.308.243,2.487,2.487,0,0,0-1.044.591,2.473,2.473,0,0,0-.6,1.155A16.474,16.474,0,0,0,1.569,9.8c-.085,1.818-.151,3.813-.217,5.907-.118,4.187-.217,8.775-.236,13.114-.013,2.159-.013,4.293.059,6.229A15.28,15.28,0,0,0,1.3,37.973a3.113,3.113,0,0,0,.676,1.477,2.376,2.376,0,0,0,.676.525c.217.105.42.2.63.276a11.957,11.957,0,0,0,4.26.4c1.234,0,2.448.046,3.551.059,2.225.046,4.142.079,5.789.112,3.3.046,5.533.026,7.043-.033A23.445,23.445,0,0,0,26.5,40.6a8.424,8.424,0,0,0,1.024.709,8.656,8.656,0,0,0,6.714.919,3.349,3.349,0,0,0,.709-.243c.23-.092.446-.184.669-.276A11.614,11.614,0,0,0,36.776,41a8.867,8.867,0,0,0,1.752-1.654,9.288,9.288,0,0,0,1.739-3.288,8.984,8.984,0,0,0,.407-2.481,4.717,4.717,0,0,0-.026-.88c-.026-.256-.046-.473-.066-.663a7.034,7.034,0,0,0-.23-.794c-.131-.335-.217-.341-.3-.322s-.164.066-.2.407a7.266,7.266,0,0,0,0,.768c-.007.177-.02.381-.033.617a5.308,5.308,0,0,1-.066.8,9.65,9.65,0,0,1-.512,2.205A8.513,8.513,0,0,1,37.609,38.6,8.033,8.033,0,0,1,36.067,40a11.108,11.108,0,0,1-1,.591c-.184.072-.374.151-.571.223a2.657,2.657,0,0,1-.6.2c-.21.046-.42.1-.637.151s-.446.046-.676.072a7.426,7.426,0,0,1-1.424-.026c-.243-.026-.492-.1-.742-.144a4.542,4.542,0,0,1-.755-.19,7.861,7.861,0,0,1-1.483-.676,8.307,8.307,0,0,1-2.914-2.934A7.84,7.84,0,0,1,24.22,32.6a8.539,8.539,0,0,1,.591-2.52,9.4,9.4,0,0,1,1.267-2.31,6.4,6.4,0,0,1,1.9-1.7,7.136,7.136,0,0,1,2.389-.8,9.25,9.25,0,0,1,4.7.315,6.862,6.862,0,0,1,1.838.958,7.233,7.233,0,0,1,1.352,1.221,7.885,7.885,0,0,1,1.411,2.258c.243.591.341.939.394.925a2.286,2.286,0,0,0-.144-1.011,7.154,7.154,0,0,0-1.267-2.494c-.151-.2-.315-.394-.5-.591a1.414,1.414,0,0,0,.571-.387c.033-.033.066-.066.105-.1s.066-.066.144-.151a1.152,1.152,0,0,0,.328-.551.86.86,0,0,0-.243-.715c-.249-.282-.341-.361-.466-.5a1.223,1.223,0,0,1-.243-.335c-.033-.1-.026-.092.013-.177a.441.441,0,0,1,.249-.2.792.792,0,0,1,.5.1,4.876,4.876,0,0,1,1.28.932c.243.236.492.479.748.722l.2.184a1.638,1.638,0,0,1,.151.151,2.545,2.545,0,0,1,.263.348,1.245,1.245,0,0,1,.217.669.784.784,0,0,1-.328.512.366.366,0,0,1-.19.066c-.066,0-.105-.02-.21-.112s-.2-.21-.354-.328a1.017,1.017,0,0,0-.551-.236.914.914,0,0,0-.486.105,1.3,1.3,0,0,0-.308.23,2,2,0,0,0-.341.44c-.151.263-.164.453-.112.466s.158-.092.361-.263a3.074,3.074,0,0,1,.374-.269.516.516,0,0,1,.413-.092.375.375,0,0,1,.177.138c.072.079.144.19.256.335a1.1,1.1,0,0,0,.571.4,1.18,1.18,0,0,0,.781-.072,1.659,1.659,0,0,0,.919-1.1,2.178,2.178,0,0,0-.236-1.424ZM23.747,29.657a9.694,9.694,0,0,0-.722,2.835,8.992,8.992,0,0,0,1.142,5.415,9.429,9.429,0,0,0,1.621,2.081c-.446-.039-1.044-.072-1.857-.105-1.5-.053-3.728-.131-7.016-.249-1.647-.053-3.564-.118-5.782-.19-1.122-.026-2.284-.079-3.6-.079a11.154,11.154,0,0,1-3.807-.328c-.164-.059-.328-.131-.479-.2a1.174,1.174,0,0,1-.3-.236,1.851,1.851,0,0,1-.381-.88,15.463,15.463,0,0,1-.118-2.684c-.092-1.976-.112-4.043-.138-6.216-.039-4.325-.039-8.907-.039-13.094.007-2.094.013-4.089.02-5.9A16.6,16.6,0,0,1,2.41,7.315a2.106,2.106,0,0,1,.413-.925A1.992,1.992,0,0,1,3.617,5.9a10.172,10.172,0,0,1,3.131-.459c.348-.007.617,0,.814.007-.013.026-.026.059-.039.085a3.279,3.279,0,0,0-.23,1.195A1.826,1.826,0,0,0,7.778,8a2.13,2.13,0,0,0,1.076.578,4.084,4.084,0,0,0,.939.092c.571,0,1.07-.066,1.5-.105.223-.02.4-.033.584-.033h.6c1.542.007,2.579-.02,3.282-.059,1.411-.085,1.47-.243,1.47-.42s-.046-.341-1.451-.492c-.7-.079-1.739-.151-3.275-.217-.19-.007-.394-.02-.6-.026-.23-.007-.486,0-.709.013-.459.026-.932.079-1.4.072a1.609,1.609,0,0,1-1.09-.282c-.164-.112-.184-.6.02-1.129a3.182,3.182,0,0,1,.479-.84,1.606,1.606,0,0,1,.361-.322,2.929,2.929,0,0,1,.486-.308,8.081,8.081,0,0,1,2.56-.781,10.335,10.335,0,0,1,5.677.617,2.868,2.868,0,0,1,.551.335,1.584,1.584,0,0,1,.433.4A2.838,2.838,0,0,1,19.8,6.134a1.563,1.563,0,0,1-.026.971,1.12,1.12,0,0,1-.564.6,4.378,4.378,0,0,1-1.4.243c-.361.026-.558.072-.564.112s.2.092.551.144a3.643,3.643,0,0,0,1.595-.033,1.606,1.606,0,0,0,.932-.794,2.131,2.131,0,0,0,.177-1.385,1.242,1.242,0,0,0-.033-.151c.269.046.761.079,1.4.112.505.026,1.122.02,1.759.072a3.05,3.05,0,0,1,1.766.6,2.171,2.171,0,0,1,.446,1.851c-.013.814-.033,1.641-.046,2.435-.02,1.595-.033,3.1-.026,4.273.026,3.866.1,6.019.2,7.213-.026-.013-.053-.033-.085-.046a1.659,1.659,0,0,0-.781-.118,2.4,2.4,0,0,0-.7.171,3.524,3.524,0,0,0-1.1.715l-.807.709a5.52,5.52,0,0,0-1.319,1.615,2.072,2.072,0,0,0-.223,1.378,1.69,1.69,0,0,0,.827,1.076,1.442,1.442,0,0,0,1.267.059,2.134,2.134,0,0,0,.7-.519c.387-.407.243-.322.328-.381a.136.136,0,0,1,.072.007.488.488,0,0,1,.1.053c.046.026.085.053.125.072a1.9,1.9,0,0,0,.584.243,12.256,12.256,0,0,0-1.214,2.232Zm1.582-2.671a1.73,1.73,0,0,0-.354-.505c-.033-.033-.066-.072-.1-.105s-.066-.072-.151-.151a1.086,1.086,0,0,0-.551-.335c-.466-.144-1.057.571-1.227.7a1.141,1.141,0,0,1-.341.23c-.1.026-.085.02-.177-.026a.467.467,0,0,1-.19-.256.857.857,0,0,1,.125-.512,4.985,4.985,0,0,1,1.017-1.286c.249-.243.505-.5.768-.761a2.465,2.465,0,0,1,.715-.564,1.278,1.278,0,0,1,.374-.131.547.547,0,0,1,.308.007.81.81,0,0,1,.5.374c.059.118.039.249-.171.453-.1.1-.217.2-.335.335a1.233,1.233,0,0,0-.282.505.832.832,0,0,0,.236.788,1.45,1.45,0,0,0,.433.3,1.5,1.5,0,0,0,.23.085,9.4,9.4,0,0,0-.827.866Zm5.33-2.678a2.3,2.3,0,0,0,.092-.473,4.169,4.169,0,0,1,.308-1.247,1.906,1.906,0,0,1,.381-.558.636.636,0,0,1,.4-.21,1.638,1.638,0,0,1,.919.354.46.46,0,0,1,.1.1c.026.026.026.039.059.1a1.284,1.284,0,0,1,.112.315,3.818,3.818,0,0,1,.1.624,6.833,6.833,0,0,0,.092.9c.013.053.02.1.033.138a10.338,10.338,0,0,0-2.593-.039Z" fill="#fff" stroke="#fff" stroke-width="0.4"/>
      <path id="Path_161383" data-name="Path 161383" d="M47.93,40.14a10.976,10.976,0,0,0-.23,3.131,10.665,10.665,0,0,0,.23,3.131,10.975,10.975,0,0,0,.23-3.131A10.975,10.975,0,0,0,47.93,40.14Z" transform="translate(-16.011 -12.944)" fill="#fff" stroke="#fff" stroke-width="0.4"/>
      <path id="Path_161384" data-name="Path 161384" d="M50.209,49.34a5.18,5.18,0,0,0-2.159.23,5.31,5.31,0,0,0,2.159.23,5.18,5.18,0,0,0,2.159-.23A5.31,5.31,0,0,0,50.209,49.34Z" transform="translate(-16.131 -16.106)" fill="#fff" stroke="#fff" stroke-width="0.4"/>
      <path id="Path_161385" data-name="Path 161385" d="M14.371,50.5c-2.33,0-7.331.289-7.331.65s5,.65,7.331.65c4.253,0,4.345-.289,4.345-.65S18.625,50.5,14.371,50.5Z" transform="translate(-2.038 -16.504)" fill="#fff" stroke="#fff" stroke-width="0.4"/>
      <path id="Path_161386" data-name="Path 161386" d="M14.371,43.93c-2.33,0-7.331.289-7.331.65s5,.65,7.331.65c4.253,0,4.345-.289,4.345-.65S18.625,43.93,14.371,43.93Z" transform="translate(-2.038 -14.246)" fill="#fff" stroke="#fff" stroke-width="0.4"/>
      <path id="Path_161387" data-name="Path 161387" d="M14.371,37.35c-2.33,0-7.331.289-7.331.65s5,.65,7.331.65c4.253,0,4.345-.289,4.345-.65S18.625,37.35,14.371,37.35Z" transform="translate(-2.038 -11.985)" fill="#fff" stroke="#fff" stroke-width="0.4"/>
      <path id="Path_161388" data-name="Path 161388" d="M26.434,26.95c0-.361-.164-.65-7.955-.65-4.266,0-13.429.289-13.429.65s9.163.65,13.429.65C26.27,27.6,26.434,27.311,26.434,26.95Z" transform="translate(-1.354 -8.188)" fill="#fff" stroke="#fff" stroke-width="0.4"/>
      <path id="Path_161389" data-name="Path 161389" d="M25.954,20.87c0-.361-.164-.65-7.955-.65-4.266,0-13.429.289-13.429.65s9.163.65,13.429.65C25.79,21.52,25.954,21.231,25.954,20.87Z" transform="translate(-1.189 -6.098)" fill="#fff" stroke="#fff" stroke-width="0.4"/>
      <path id="Path_161390" data-name="Path 161390" d="M9.35,12.726c.1-.085-.158-.532-.4-1.1s-.42-1.05-.545-1.03-.151.584.131,1.214S9.258,12.805,9.35,12.726Z" transform="translate(-2.477 -2.792)" fill="#fff" stroke="#fff" stroke-width="0.4"/>
      <path id="Path_161391" data-name="Path 161391" d="M8.89,14.292c.085-.105-.6-.742-1.044-1.759S7.361,10.6,7.23,10.59a2.565,2.565,0,0,0,.2,2.133C7.938,13.858,8.831,14.4,8.89,14.292Z" transform="translate(-2.057 -2.789)" fill="#fff" stroke="#fff" stroke-width="0.4"/>
    </g>
  </g>
</svg>
