<svg xmlns="http://www.w3.org/2000/svg" width="46" height="46" viewBox="0 0 46 46">
  <g id="Group_120796" data-name="Group 120796" transform="translate(1965 -13443)">
    <g id="Rectangle_35311" data-name="Rectangle 35311" transform="translate(-1965 13443)" fill="#fff" stroke="#707070" stroke-width="1" opacity="0">
      <rect width="46" height="46" stroke="none"/>
      <rect x="0.5" y="0.5" width="45" height="45" fill="none"/>
    </g>
    <g id="new-born" transform="translate(-1964.679 13444)">
      <path id="Path_161376" data-name="Path 161376" d="M34.516,13.1a17.592,17.592,0,0,0-7.1-4A.08.08,0,0,1,27.5,9.02a14.905,14.905,0,0,1,1.061-1.306A10.564,10.564,0,0,1,29.944,6.49a3.184,3.184,0,0,0-2.122.163,4.5,4.5,0,0,0-1.633,1.388,1.641,1.641,0,0,0-.327.653,11.211,11.211,0,0,0-2.857-.163,26.1,26.1,0,0,1,.327-4.245A12.807,12.807,0,0,1,23.659,2a6.376,6.376,0,0,0-2.2,6.612,15.852,15.852,0,0,0-1.959.163,4.618,4.618,0,0,0-1.633-2.2,2.827,2.827,0,0,0-2.122-.735,10.64,10.64,0,0,1,1.224,1.633,15.164,15.164,0,0,1,.9,1.551c0,.082,0,.082.082.163a16.688,16.688,0,0,0-7.1,4,17.774,17.774,0,0,0-3.755,5.388A17.582,17.582,0,0,0,5.7,25.02,16.9,16.9,0,0,0,10.6,37.1,17.837,17.837,0,0,0,22.679,42a17.121,17.121,0,0,0,12.082-5.061A16.655,16.655,0,0,0,34.516,13.1ZM33.7,35.878a15.77,15.77,0,0,1-22.041,0,15.967,15.967,0,0,1-.245-22.286A15.524,15.524,0,0,1,16.475,10a11.9,11.9,0,0,1,1.551-.571,15.5,15.5,0,0,1,1.061,3.1,3.912,3.912,0,0,0,.735-2.122,4.622,4.622,0,0,0-.245-1.469,15.067,15.067,0,0,1,1.878-.327c0,.082.082.245.082.327a4.686,4.686,0,0,0,1.306,2.2c0-.9-.082-1.633-.082-2.367V8.612a16.27,16.27,0,0,1,2.776.408,3.276,3.276,0,0,0-.245,1.224,3.061,3.061,0,0,0,.653,2.041A10.632,10.632,0,0,1,27.169,9.51a9.729,9.729,0,0,1,1.633.653,16.26,16.26,0,0,1,5.061,3.592A16.061,16.061,0,0,1,38.271,25.02,15.612,15.612,0,0,1,33.7,35.878Z" transform="translate(0)" fill="#fff"/>
      <path id="Path_161377" data-name="Path 161377" d="M33.852,34.5c-3.347.163-6.449.245-9.8.571,3.02.245,5.878.408,8.98.571a9.475,9.475,0,0,1-3.184,4.408,1.433,1.433,0,0,0-.408.327A6.85,6.85,0,0,0,27.567,38.5a6.153,6.153,0,0,0-3.347-.98,5.958,5.958,0,0,0-3.347.98A6.851,6.851,0,0,0,19,40.374a.815.815,0,0,1-.408-.327A10.079,10.079,0,0,1,15.4,35.639c1.306-.082,2.612-.082,4-.163,1.551-.082,3.184-.163,4.735-.327-1.551-.163-3.184-.245-4.735-.327s-3.184-.163-4.735-.245a.578.578,0,0,0-.571.653v.082A10.238,10.238,0,0,0,24.22,43.639a10.728,10.728,0,0,0,6.612-2.367,10.326,10.326,0,0,0,3.592-5.959v-.245c0-.408-.245-.653-.571-.571ZM21.607,39.721a5.551,5.551,0,0,1,5.224,0,7.315,7.315,0,0,1,1.551,1.224,9.1,9.1,0,0,1-4.082.98,8.851,8.851,0,0,1-4.082-.98,4.063,4.063,0,0,1,1.388-1.224Z" transform="translate(-1.541 -5.966)" fill="#fff"/>
      <path id="Path_161378" data-name="Path 161378" d="M33.618,29.737a2.915,2.915,0,0,0,2.2-.98,2.876,2.876,0,0,0,.816-2.2,2.76,2.76,0,0,0-1.061-1.959,2.425,2.425,0,0,0-1.959-.408,2.213,2.213,0,0,1,1.714,2.367,1.723,1.723,0,0,1-3.429,0,2.213,2.213,0,0,1,1.714-2.367,2.425,2.425,0,0,0-1.959.408,2.773,2.773,0,0,0-.245,4.163A2.8,2.8,0,0,0,33.618,29.737Z" transform="translate(-4.571 -4.063)" fill="#fff"/>
      <path id="Path_161379" data-name="Path 161379" d="M18.018,29.737a2.915,2.915,0,0,0,2.2-.98,2.876,2.876,0,0,0,.816-2.2,2.76,2.76,0,0,0-1.061-1.959,2.425,2.425,0,0,0-1.959-.408,2.213,2.213,0,0,1,1.714,2.367,1.723,1.723,0,0,1-3.429,0,2.213,2.213,0,0,1,1.714-2.367,2.425,2.425,0,0,0-1.959.408,2.773,2.773,0,0,0-.245,4.163A2.915,2.915,0,0,0,18.018,29.737Z" transform="translate(-1.706 -4.063)" fill="#fff"/>
    </g>
  </g>
</svg>
