<svg xmlns="http://www.w3.org/2000/svg" width="46" height="46" viewBox="0 0 46 46">
  <g id="Group_120790" data-name="Group 120790" transform="translate(3308 10924)">
    <g id="_x31_55" transform="translate(-3307.982 -10923.557)">
      <path id="Path_161340" data-name="Path 161340" d="M18.914,22.979a8.515,8.515,0,0,0-4.539,1.037c-1.88,1.167-1.816,2.983-1.88,5.058a60.175,60.175,0,0,0,.454,7.716,5.758,5.758,0,0,0,.584,2.918c.778,1.037,2.334,1.167,3.631,1.167,5.252.195,10.57.195,15.822-.065,1.3-.065,2.723-.324,3.437-1.427.648-.973.519-2.14.519-4.345a45.348,45.348,0,0,0-.259-7.262c0-.195-.065-.324-.065-.519a5,5,0,0,0-.778-2.464c-1.621-2.14-5.771-1.621-8.041-1.686-3.566-.195-6.29-.195-8.884-.13Zm10.18,1.037c2.075,0,4.863-.065,5.9,1.362a4.1,4.1,0,0,1,.648,2.01c0,.195.065.389.065.519a59.818,59.818,0,0,1,.259,9.013c0,1.945-.324,2.723-3.048,2.918-5.706.324-10.5.195-15.757.065-3.631-.13-2.983-1.1-3.177-3.242a58.958,58.958,0,0,1-.454-8.235c.065-1.621.13-2.788,1.427-3.566a7.624,7.624,0,0,1,4.02-.843c4.863-.195,7.846,0,10.116,0Z" transform="translate(-2.185 -7.597)" fill="#fff"/>
      <path id="Path_161341" data-name="Path 161341" d="M17.313,12.01v.065c-3.242.13-6.29.259-8.819.454a1.782,1.782,0,0,0-1.427.778c-.778.584-.843,2.01-.778,2.918.13,5.966.259,11.8.454,17.7a2.944,2.944,0,0,0,.778,2.334c.713.584,1.232.454,6.42.454-.324,1.686-.648,3.372-.843,5.058a1.568,1.568,0,0,0,.648,1.491.7.7,0,0,0,.519.13,1.046,1.046,0,0,0,.584-.195,3.568,3.568,0,0,0,.973-1.232,32.982,32.982,0,0,0,2.594-5.252c3.372,0,7.133,0,10.18.065a30.5,30.5,0,0,0,2.529,5.512,5.85,5.85,0,0,0,.908,1.3,1.046,1.046,0,0,0,.584.195,1.526,1.526,0,0,0,.519-.13,1.51,1.51,0,0,0,.648-1.491c-.195-1.816-.454-3.566-.778-5.317,2.529,0,4.474.195,5.641-.843a1.924,1.924,0,0,0,.908-1.751c-.195-6.549.324-13.163.065-19.712a1.912,1.912,0,0,0-1.816-1.88c-3.242-.324-6.484-.454-9.662-.584A5.986,5.986,0,0,0,24.9,8.9a54,54,0,0,0,2.14-5.058h.195a1.31,1.31,0,0,0,.908-1.556,1.274,1.274,0,0,0-2.464.648,1.482,1.482,0,0,0,.454.648,36.088,36.088,0,0,1-2.14,4.993,5.034,5.034,0,0,0-2.2-.065c-.065-.195.195.324-2.334-4.928a1.268,1.268,0,0,0,.259-1.037,1.179,1.179,0,0,0-1.751-.778c-.065,0-.13.065-.195.065a1.2,1.2,0,0,0,.713,2.14l2.27,4.8a6.027,6.027,0,0,0-3.437,3.242ZM14.849,41.578a5.367,5.367,0,0,1-.713.973c-.065,0-.259-.195-.195-.519.259-1.751.519-3.5.908-5.187h2.4a46.32,46.32,0,0,1-2.4,4.734Zm17.832.648c.065.324-.13.519-.195.519a2.827,2.827,0,0,1-.648-.973A39.2,39.2,0,0,1,29.5,36.78h2.4q.486,2.723.778,5.447Zm5.9-27.688c.195,6.549-.259,13.163-.065,19.712a.972.972,0,0,1-.973,1.037c-10.57.259-21.074,0-28.077-.259a1,1,0,0,1-.973-.973c-.065-6.484-.324-13.034-.843-19.518a1.017,1.017,0,0,1,.908-1.1,181.839,181.839,0,0,1,29.115.065,1.256,1.256,0,0,1,.908,1.037ZM22.7,9.416a5.036,5.036,0,0,1,4.28,2.659c-2.983-.065-5.9-.065-8.624.065A4.766,4.766,0,0,1,22.7,9.416Z" transform="translate(0 0)" fill="#fff"/>
      <path id="Path_161342" data-name="Path 161342" d="M50.871,41.666a1.266,1.266,0,0,0,.778.843,1.318,1.318,0,1,0-.778-.843Zm1.167-.065a.352.352,0,0,1-.065-.648.356.356,0,0,1,.519.389C52.492,41.6,52.3,41.731,52.038,41.6Z" transform="translate(-15.661 -13.575)" fill="#fff"/>
      <path id="Path_161343" data-name="Path 161343" d="M53.068,35.79a.96.96,0,0,0,.259-1.362.9.9,0,0,0-1.556.843A.912.912,0,0,0,53.068,35.79Z" transform="translate(-15.978 -11.525)" fill="#fff"/>
      <path id="Path_161344" data-name="Path 161344" d="M53.229,30.1h-2.01a.511.511,0,0,0-.519.519.477.477,0,0,0,.519.519h2.01a.519.519,0,1,0,0-1.037Z" transform="translate(-15.62 -10.115)" fill="#fff"/>
      <path id="Path_161345" data-name="Path 161345" d="M50.919,27.538h2.4a.511.511,0,0,0,.519-.519.477.477,0,0,0-.519-.519h-2.4a.519.519,0,1,0,0,1.037Z" transform="translate(-15.514 -8.849)" fill="#fff"/>
      <path id="Path_161346" data-name="Path 161346" d="M18.866,33.082a.5.5,0,1,0-.973.195,28.585,28.585,0,0,1,.324,5.252.511.511,0,0,0,.519.519c.065,0,4.085-.13,4.02-.13a.487.487,0,1,0-.065-.973l-3.437.065a30.942,30.942,0,0,0-.389-4.928Z" transform="translate(-4.082 -11.022)" fill="#fff"/>
      <path id="Path_161347" data-name="Path 161347" d="M27.548,38.62a.511.511,0,0,0,.519-.519V32.719a.511.511,0,0,0-.519-.519.463.463,0,0,0-.454.519V38.1A.432.432,0,0,0,27.548,38.62Z" transform="translate(-7.317 -10.853)" fill="#fff"/>
      <path id="Path_161348" data-name="Path 161348" d="M32.072,38.229c.065.195.259.259.389.324a.49.49,0,0,0,.454-.259,19.046,19.046,0,0,0,2.14-5.317.5.5,0,0,0-.973-.195,19.216,19.216,0,0,1-1.556,4.15c-.519-1.362-1.037-2.659-1.427-3.955a.472.472,0,0,0-.908.259c.519,1.621,1.167,3.307,1.88,4.993Z" transform="translate(-8.404 -10.916)" fill="#fff"/>
      <path id="Path_161349" data-name="Path 161349" d="M39.1,37.871a.922.922,0,0,0,.13.389.5.5,0,0,0,.324.13h.065c.908-.065,1.816-.065,2.659-.195a.487.487,0,1,0-.065-.973,9.133,9.133,0,0,1-1.3.065,3.7,3.7,0,0,0-.843.065V35.8c.259,0,.519-.065.843-.065a6.668,6.668,0,0,0,1.1-.065c.259-.065.454-.259.389-.519s-.259-.454-.519-.389a4.908,4.908,0,0,1-.973.065,3.157,3.157,0,0,0-.778.065V33.332l2.2-.259a.55.55,0,0,0,.454-.519.5.5,0,0,0-.519-.454l-2.594.324a.487.487,0,0,0-.454.454v2.529a15.289,15.289,0,0,0-.13,2.464Z" transform="translate(-11.542 -10.818)" fill="#fff"/>
    </g>
    <rect id="Rectangle_35305" data-name="Rectangle 35305" width="46" height="46" transform="translate(-3308 -10924)" fill="none"/>
  </g>
</svg>
