<svg xmlns="http://www.w3.org/2000/svg" width="46" height="46" viewBox="0 0 46 46">
  <g id="Group_120794" data-name="Group 120794" transform="translate(1793 -13360)">
    <g id="_x33_5" transform="translate(-1793.229 13359.621)">
      <path id="Path_161372" data-name="Path 161372" d="M29.266,24.165c-4.587-2.625-11.315-.328-13.446,4.558a8.869,8.869,0,0,0,5.23,11.861A9.567,9.567,0,0,0,33.592,33.42,9.122,9.122,0,0,0,29.266,24.165Zm.246,14.148a8.406,8.406,0,0,1-1.888,1.106C18.86,41.049,14.75,29.007,22.689,24.35A7.9,7.9,0,0,1,29.512,38.312Z" transform="translate(-4.671 -6.643)" fill="#fff"/>
      <path id="Path_161373" data-name="Path 161373" d="M37.161,4.728c-.4-1.8-3.279-1.812-3.337.1A13.247,13.247,0,0,0,26.4,8.124a.5.5,0,0,0,.668.736,12.273,12.273,0,0,1,7-3.058,1.712,1.712,0,0,0,.951.822c-1.053,1.681-2.122,3.422-3.183,5.144-.308-.354-.6-.7-.854-1.028a.5.5,0,0,0-.611-.14A18.423,18.423,0,0,0,27,12.675c-.8-.353-1.657-.667-2.5-.981-.281-1.34-.571-2.723-.723-4.046a.5.5,0,0,0-.482-.44c-2.453-.057-4.574-.047-6.672.034a.5.5,0,0,0-.464.382,27.244,27.244,0,0,0-.64,3.685c-.865.348-1.726.665-2.529.989a31.8,31.8,0,0,0-3.006-2.215.5.5,0,0,0-.616.053L4.741,14.508a.5.5,0,0,0-.084.618,26.426,26.426,0,0,0,2.236,3.107A16,16,0,0,0,5.73,20.8c-1.28.136-2.583.311-3.833.437a.5.5,0,0,0-.446.457c-.181,2.394-.206,4.678-.206,6.792a.5.5,0,0,0,.387.485c1.146.26,2.4.562,3.487.81a8.934,8.934,0,0,0,1.112,2.7,10.778,10.778,0,0,1-2.121,2.734.5.5,0,0,0-.154.359c0,.295.158.368,1.037,1.195a38.685,38.685,0,0,1,3.4,3.474.486.486,0,0,0,.208.141,4.3,4.3,0,0,0,1.517.784c.975-.675,2.094-1.324,3.111-2.01a8.642,8.642,0,0,0,1.612.666c.168,1.188.326,2.337.49,3.531a.5.5,0,0,0,.477.43,68.906,68.906,0,0,0,6.923.076,4.393,4.393,0,0,0,1.389-.507,20.735,20.735,0,0,0,.889-3.7,13.654,13.654,0,0,0,1.756-.795c.96.746,1.947,1.466,2.955,2.251a.5.5,0,0,0,.592.014A24.159,24.159,0,0,0,35.2,36.346a.49.49,0,0,0,.1-.27c.179-.469.322-.792.506-1.282a16.087,16.087,0,0,1-2-2.9,6.412,6.412,0,0,0,.725-1.774,37.615,37.615,0,0,1,3.771-.356.5.5,0,0,0,.478-.5c0-1.335.02-2.652.047-4.565a10.818,10.818,0,0,0,1.612-.265c0,.009.007.019.011.028l.426-.26a.559.559,0,0,0,.248-.659,4.6,4.6,0,0,1,.336-3.827,9.381,9.381,0,0,0,1.165-1.968c.492-1.688-.677-2.975-4.5-8.69A22.44,22.44,0,0,0,36.307,6.49a1.638,1.638,0,0,0,.746-.775,12.647,12.647,0,0,1,6.755,3.033.5.5,0,0,0,.659-.744A13.653,13.653,0,0,0,37.161,4.728Zm-2.051-.3a.871.871,0,0,1,.931.236A.644.644,0,0,1,35.425,5.7C34.875,5.632,34.545,4.656,35.11,4.426ZM37.782,28.8c-1.1.06-2.284.184-3.749.393-.723.1-.007.934-1.765,3.218-.279.362.1.741.2,1.014a23.042,23.042,0,0,0,1.7,2.609,23.269,23.269,0,0,1-4.143,4.077c-.984-.757-2-1.5-2.918-2.224a.5.5,0,0,0-.555-.04,12.452,12.452,0,0,1-3.205,1.293c-.312.082-.357.353-.421.576-.3,1.071-.582,2.073-.846,3.236-2.026.01-4.083-.081-5.833-.137-.158-1.155-.314-2.278-.479-3.443a.5.5,0,0,0-.371-.412,8.279,8.279,0,0,1-1.533-.571c-1.4-.706-1.43-1.02-1.828-.856a15.626,15.626,0,0,0-3.191,1.728,51.65,51.65,0,0,0-3.684-3.682,11.719,11.719,0,0,0,2.083-2.888.5.5,0,0,0-.034-.51,7.846,7.846,0,0,1-1.191-2.9.5.5,0,0,0-.379-.389c-1.143-.257-2.3-.536-3.408-.792,0-1.858.031-3.843.173-5.907,1.2-.129,2.519-.3,3.732-.426a.5.5,0,0,0,.42-.334c1.776-5.209,2.385-1.379-.847-6.475L9.754,11.13c3.029,2.043,2.813,2.412,3.324,2.2,2.989-1.231,3.353-1.132,3.4-1.637a24.653,24.653,0,0,1,.558-3.473c1.832-.063,3.7-.072,5.8-.029.176,1.309.465,2.663.741,3.975.114.534.719.354,3.288,1.539a.493.493,0,0,0,.527-.07,16.239,16.239,0,0,1,3.062-1.965c.257.319.534.645.838.987-.642,1.05-1.285,2.1-1.929,3.128a2.008,2.008,0,0,0,.292,2.52,5.63,5.63,0,0,1,1.761,5.576.5.5,0,0,0,.387.619,22.844,22.844,0,0,0,6.025.307C37.806,26.353,37.786,27.635,37.782,28.8Zm-5.288-5.184a6.683,6.683,0,0,0-2.158-6.03,1.012,1.012,0,0,1-.131-1.271c.693-1.107,1.386-2.24,2.078-3.372l.049-.08v0C33.578,10.838,34.09,10,34.915,8.673c.125,2.3.165,4.622.11,6.919a1.2,1.2,0,0,0,.5,2.249,1.261,1.261,0,0,0,1.252-1.019l0-.012a1.152,1.152,0,0,0-.761-1.222c.058-2.463.011-4.953-.136-7.413,1.921,2.887,3.472,5.522,5.21,8.122a1.074,1.074,0,0,1-.053,1.254,7.469,7.469,0,0,0-1.479,6.06A22.778,22.778,0,0,1,32.494,23.612Z" transform="translate(0 0)" fill="#fff"/>
    </g>
    <g id="Rectangle_35309" data-name="Rectangle 35309" transform="translate(-1793 13360)" fill="#fff" stroke="#707070" stroke-width="1" opacity="0">
      <rect width="46" height="46" stroke="none"/>
      <rect x="0.5" y="0.5" width="45" height="45" fill="none"/>
    </g>
  </g>
</svg>
