<svg xmlns="http://www.w3.org/2000/svg" width="46" height="46" viewBox="0 0 46 46">
  <g id="Group_120792" data-name="Group 120792" transform="translate(3367 10924)">
    <g id="Rectangle_35307" data-name="Rectangle 35307" transform="translate(-3367 -10924)" fill="none" stroke="#707070" stroke-width="1" opacity="0">
      <rect width="46" height="46" stroke="none"/>
      <rect x="0.5" y="0.5" width="45" height="45" fill="none"/>
    </g>
    <g id="recording" transform="translate(-3366.061 -10923.74)">
      <path id="Path_161360" data-name="Path 161360" d="M41.932,31.976c-.084-.769-.194-1.538-.336-2.3a13.855,13.855,0,0,0-.582-2.321,8.4,8.4,0,0,0-1.125-2.178A5.283,5.283,0,0,0,38,23.572a5.838,5.838,0,0,0-2.366-.556,21.643,21.643,0,0,0-2.269.084c-2.948.233-5.76.537-8.449.814s-5.236.562-7.621.814c-1.2.123-2.34.252-3.445.3a9.964,9.964,0,0,0-1.681.213,2.912,2.912,0,0,0-.834.33,1.762,1.762,0,0,0-.627.7,3.543,3.543,0,0,0-.284,1.616c.006.5.052.983.084,1.435.058.75.116,1.454.168,2.133-.155-.123-.356-.278-.627-.472a15.119,15.119,0,0,0-2.812-1.616,6.194,6.194,0,0,0-2.262-.537,2.26,2.26,0,0,0-1.39.394,2.881,2.881,0,0,0-.911,1.2,8.165,8.165,0,0,0-.588,2.883,16.524,16.524,0,0,0,.149,3.077,18.637,18.637,0,0,0,.646,3.006,9.915,9.915,0,0,0,1.189,2.663,3.11,3.11,0,0,0,1.073,1.034,2.068,2.068,0,0,0,1.474.09,6.035,6.035,0,0,0,2.03-1.151,21.611,21.611,0,0,0,2.308-2.256,10.249,10.249,0,0,0,.679-.8,2.032,2.032,0,0,0,.181.595c.071-.013-.149-1.261-.343-3.529-.1-1.138-.181-2.528-.265-4.144-.039-.808-.084-1.674-.129-2.6-.026-.465-.058-.924-.052-1.4a3.067,3.067,0,0,1,.239-1.312,1.092,1.092,0,0,1,.407-.433,2.148,2.148,0,0,1,.64-.233,9.828,9.828,0,0,1,1.564-.168c1.125-.039,2.288-.149,3.484-.259,2.392-.233,4.945-.472,7.634-.73S30.5,24.212,33.419,24a8.036,8.036,0,0,1,4.176.388,5.487,5.487,0,0,1,2.566,3.271,12.937,12.937,0,0,1,.543,2.178c.142.75.246,1.493.33,2.237a16.589,16.589,0,0,1-.026,4.35,6.668,6.668,0,0,1-1.616,3.652,5.989,5.989,0,0,1-3.439,1.61C30.632,42.539,25.8,43,21.731,43.353c-2.036.168-3.879.317-5.495.446a11.907,11.907,0,0,1-2.2.078,1.637,1.637,0,0,1-1.345-.937,5.515,5.515,0,0,1-.446-1.4c-.084-.427-.142-.8-.194-1.092a2.834,2.834,0,0,0-.233-.892,5.732,5.732,0,0,0,.052.918c.026.3.052.672.11,1.112a5.264,5.264,0,0,0,.394,1.506,2.085,2.085,0,0,0,.588.782,2.134,2.134,0,0,0,1,.42,11.963,11.963,0,0,0,2.308,0c1.623-.078,3.465-.181,5.508-.31.944-.065,1.933-.136,2.954-.213a9.323,9.323,0,0,0-.685,2c-.336,1.377-.407,2.534-.162,2.592s.711-1.008,1.041-2.379a8.255,8.255,0,0,0,.3-2.25c1.913-.155,3.963-.349,6.109-.595A15,15,0,0,0,32.85,45.8c1.021,1.532,1.959,2.7,2.178,2.573s-.388-1.526-1.422-3.077a13.544,13.544,0,0,0-1.784-2.211c1.383-.168,2.805-.356,4.266-.575a6.8,6.8,0,0,0,3.937-1.836A7.506,7.506,0,0,0,41.9,36.559a18.118,18.118,0,0,0,.032-4.583ZM11.123,36.068c.149,1.138.31,2.01.44,2.605.013.071.026.123.039.181a5.219,5.219,0,0,0-.9.653c-.588.478-1.383,1.228-2.45,2a5.624,5.624,0,0,1-1.829.931,1.343,1.343,0,0,1-.924-.065,2.389,2.389,0,0,1-.75-.789,9.854,9.854,0,0,1-1.034-2.456,18.953,18.953,0,0,1-.595-2.87,16.663,16.663,0,0,1-.155-2.922,7.674,7.674,0,0,1,.465-2.586c.537-1.674,2.4-1.176,3.575-.782A23.749,23.749,0,0,1,9.863,31.3c.368.187.64.323.827.394.006.071.013.155.019.226.123,1.623.259,3.012.414,4.15Z" transform="translate(0 -6.813)" fill="#fff" stroke="#fff" stroke-width="0.5"/>
      <path id="Path_161361" data-name="Path 161361" d="M48.387,44.7a4.233,4.233,0,0,0,1.862.659,4.929,4.929,0,0,0,3.142-.692,2.878,2.878,0,0,0,1.325-1.719c.1-.524-.032-.8-.084-.8-.071.006-.078.278-.252.685a2.766,2.766,0,0,1-1.312,1.273,4.546,4.546,0,0,1-2.709.414,3.489,3.489,0,0,1-1.467-.562,1.576,1.576,0,0,1-.226-2.6,3.47,3.47,0,0,1,1.345-.808,4.585,4.585,0,0,1,2.741-.065,2.763,2.763,0,0,1,1.513,1.028c.246.368.3.64.368.627.052,0,.129-.3-.058-.8a2.859,2.859,0,0,0-1.61-1.461,4.956,4.956,0,0,0-3.213-.129,4.218,4.218,0,0,0-1.713.976,2.433,2.433,0,0,0,.349,3.963Z" transform="translate(-15.951 -12.663)" fill="#fff" stroke="#fff" stroke-width="0.5"/>
      <path id="Path_161362" data-name="Path 161362" d="M17.337,15.886a5.725,5.725,0,0,0,1.416,1.183,5.887,5.887,0,0,0,1.629.692,6.042,6.042,0,0,0,3.226-.058,5.813,5.813,0,0,0,2.411-1.416,5.673,5.673,0,0,0,1.739-3.536,2.593,2.593,0,0,0-.123-1.435c-.078.006-.045.517-.226,1.383a5.75,5.75,0,0,1-1.829,3.122,5.453,5.453,0,0,1-2.185,1.164,5.37,5.37,0,0,1-2.805-.026,4.932,4.932,0,0,1-1.39-.621A5.056,5.056,0,0,1,18,15.3a5.343,5.343,0,0,1-.549-6.225A5.35,5.35,0,0,1,19.71,7a5.352,5.352,0,0,1,5.113.246A5.8,5.8,0,0,1,27.17,10a12.819,12.819,0,0,0,.465,1.319A2.657,2.657,0,0,0,27.5,9.881,5.7,5.7,0,0,0,25.166,6.7a5.939,5.939,0,0,0-2.624-.97,6.015,6.015,0,0,0-3.187.511,5.709,5.709,0,0,0-1.48.963,5.587,5.587,0,0,0-1.183,1.416,6.141,6.141,0,0,0,.646,7.266Z" transform="translate(-4.857 -0.692)" fill="#fff" stroke="#fff" stroke-width="0.5"/>
      <path id="Path_161363" data-name="Path 161363" d="M26.254,13.277c-.071.006-.09.246-.2.621a2.677,2.677,0,0,1-.866,1.332,2.334,2.334,0,0,1-2.133.433,2.259,2.259,0,0,1-.368-4.182,2.325,2.325,0,0,1,2.172.058A2.688,2.688,0,0,1,25.943,12.7c.181.362.246.588.31.582s.116-.246.026-.692A2.672,2.672,0,0,0,25.207,11a2.921,2.921,0,0,0-2.87-.271,3.052,3.052,0,0,0,.5,5.74,2.92,2.92,0,0,0,2.78-.769,2.667,2.667,0,0,0,.782-1.745c.013-.452-.09-.685-.149-.679Z" transform="translate(-6.533 -2.381)" fill="#fff" stroke="#fff" stroke-width="0.5"/>
      <path id="Path_161364" data-name="Path 161364" d="M37.334,14.13a5.725,5.725,0,0,0,1.416,1.183A5.887,5.887,0,0,0,40.379,16a6.042,6.042,0,0,0,3.226-.058,5.813,5.813,0,0,0,2.411-1.416,5.673,5.673,0,0,0,1.739-3.536,2.593,2.593,0,0,0-.123-1.435c-.078.006-.045.517-.226,1.383a5.75,5.75,0,0,1-1.829,3.122,5.453,5.453,0,0,1-2.185,1.164,5.37,5.37,0,0,1-2.805-.026,4.932,4.932,0,0,1-1.39-.621,5.056,5.056,0,0,1-1.2-1.034,5.343,5.343,0,0,1-.549-6.225,5.35,5.35,0,0,1,2.262-2.081,5.352,5.352,0,0,1,5.113.246,5.8,5.8,0,0,1,2.347,2.754,12.822,12.822,0,0,0,.465,1.319A2.656,2.656,0,0,0,47.5,8.125a5.652,5.652,0,0,0-2.321-3.174,5.939,5.939,0,0,0-2.624-.97,6.015,6.015,0,0,0-3.187.511,5.709,5.709,0,0,0-1.48.963A5.587,5.587,0,0,0,36.7,6.871a6.155,6.155,0,0,0,.633,7.259Z" transform="translate(-11.932 -0.073)" fill="#fff" stroke="#fff" stroke-width="0.5"/>
      <path id="Path_161365" data-name="Path 161365" d="M46.254,11.517c-.071.006-.091.246-.2.621a2.677,2.677,0,0,1-.866,1.332,2.334,2.334,0,0,1-2.133.433,2.259,2.259,0,0,1-.368-4.182,2.325,2.325,0,0,1,2.172.058,2.688,2.688,0,0,1,1.086,1.157c.181.356.239.588.31.582.052,0,.116-.246.026-.692a2.672,2.672,0,0,0-1.073-1.584,2.921,2.921,0,0,0-2.87-.271,3.052,3.052,0,0,0,.5,5.74,2.92,2.92,0,0,0,2.78-.769A2.667,2.667,0,0,0,46.4,12.2c.013-.452-.1-.685-.149-.679Z" transform="translate(-13.604 -1.759)" fill="#fff" stroke="#fff" stroke-width="0.5"/>
      <path id="Path_161366" data-name="Path 161366" d="M57.577,8.879a7.289,7.289,0,0,0-1.655-2.915,7.37,7.37,0,0,0-2.515-2.217c-.084.1,1.028,1.092,2.166,2.5s1.888,2.689,2,2.631Z" transform="translate(-18.153 0)" fill="#fff" stroke="#fff" stroke-width="0.5"/>
      <path id="Path_161367" data-name="Path 161367" d="M59.642,8.561c.116-.032-.058-.9-.633-1.823s-1.28-1.454-1.364-1.364.44.737.976,1.6S59.519,8.607,59.642,8.561Z" transform="translate(-19.649 -0.574)" fill="#fff" stroke="#fff" stroke-width="0.5"/>
      <path id="Path_161368" data-name="Path 161368" d="M16.693,59.425c-1.28-.685-2.14-1.519-2.237-1.429a4.415,4.415,0,0,0,2.023,1.829,4.408,4.408,0,0,0,2.631.7C19.136,60.395,17.966,60.123,16.693,59.425Z" transform="translate(-4.38 -19.181)" fill="#fff" stroke="#fff" stroke-width="0.5"/>
      <path id="Path_161369" data-name="Path 161369" d="M14.483,60.348c-.782-.42-1.435-.75-1.506-.64s.485.608,1.293,1.041,1.538.614,1.584.5S15.265,60.768,14.483,60.348Z" transform="translate(-3.857 -19.781)" fill="#fff" stroke="#fff" stroke-width="0.5"/>
    </g>
  </g>
</svg>
