<svg xmlns="http://www.w3.org/2000/svg" width="46" height="46" viewBox="0 0 46 46">
  <g id="Group_120800" data-name="Group 120800" transform="translate(1841 -13383)">
    <g id="Rectangle_35315" data-name="Rectangle 35315" transform="translate(-1841 13383)" fill="#fff" stroke="#707070" stroke-width="1" opacity="0">
      <rect width="46" height="46" stroke="none"/>
      <rect x="0.5" y="0.5" width="45" height="45" fill="none"/>
    </g>
    <g id="pie-chart" transform="translate(-1840.166 13383.602)">
      <path id="Path_161394" data-name="Path 161394" d="M45.48,42.433a1.838,1.838,0,0,0,1.654.412c1.045-.306,1.558-1.4,2.219-2.168A19.825,19.825,0,0,0,52.883,32.5a2.147,2.147,0,0,0-1.622-2.421,37.275,37.275,0,0,0-3.792-.086c-1.91.031-6.9.114-8.741.167-.469.012-1.736.048-2.185.058a5.336,5.336,0,0,0-.83.049,1.208,1.208,0,0,0-.684,1.9c.2.244.376.356.562.555.334.32,2.264,2.159,2.636,2.515,1.157,1.124,3.566,3.487,5.182,5.1a.427.427,0,0,0,.2.2c.322.323.61.614.838.847l1.039,1.047Zm2.377-1.052c-.279.344-.469.7-.9.817a1.116,1.116,0,0,1-1.066-.232L44.867,40.96c-.219-.218-.439-.434-.66-.649a49.276,49.276,0,0,0,7.222-7.053,19.25,19.25,0,0,1-3.572,8.124ZM35.75,31.622a.261.261,0,0,1,.168-.4c.89.024,2.06.053,3.337.081a7.539,7.539,0,0,0-1.81,2.1c-.287-.3-.54-.566-.735-.775l-.959-1.013Zm2.342,2.461a7.541,7.541,0,0,0,2.75-2.742c1.728.037,3.512.072,4.987.1-.792.651-1.539,1.347-2.266,2.064a28.267,28.267,0,0,0-2.846,3.281c-.873-.893-1.823-1.869-2.625-2.7Zm3.21,3.3a29.77,29.77,0,0,0,5.967-5.921l.2,0c1.092.01,2.186,0,3.278-.026a.789.789,0,0,1,.751.409,49.314,49.314,0,0,0-7.863,7.9c-.28-.276-.561-.553-.834-.836-.366-.372-.9-.913-1.5-1.527Z" transform="translate(-9.196 -7.66)" fill="#fff"/>
      <path id="Path_161395" data-name="Path 161395" d="M52.025,18.308A18.226,18.226,0,0,0,50.3,12.739,20.249,20.249,0,0,0,33.524,1.514a1.884,1.884,0,0,0-2.041,1.972c0,.3.028,1.233.026,1.54.039,2.851.059,9.557.05,12.316l-.011,2.053a1.053,1.053,0,0,0,.842,1.048c.4.058.724,0,1.086.037L49.9,20.8a2.156,2.156,0,0,0,2.128-2.49ZM49.9,19.489l-.725.014c-.533-.742-1.088-1.466-1.68-2.158A31.772,31.772,0,0,0,45.163,14.9a.19.19,0,0,0-.287.246,31.718,31.718,0,0,0,2.057,2.676c.5.585,1.032,1.144,1.575,1.692l-1.761.034a11.392,11.392,0,0,0-1.015-1.474l-.137-.165c-.36-.431-.742-.852-1.128-1.247-.251-.257-.5-.5-.741-.713a.161.161,0,0,0-.179-.023.138.138,0,0,0-.076.173,10.184,10.184,0,0,0,1.307,1.948c.05.061.1.122.152.184.385.459.792.906,1.206,1.326l0,0-1.714.034a4.838,4.838,0,0,0-.623-.991l-.1-.126c-.267-.333-.558-.659-.842-.95A6.1,6.1,0,0,0,42.292,17a.147.147,0,0,0-.128-.029c-.058.017-.093.053-.1.083a2.882,2.882,0,0,0,.75,1.451c.036.046.072.091.11.137.272.338.568.668.859.965l-1.614.031a3,3,0,0,0-.3-.506,6.448,6.448,0,0,0-.62-.741,1.523,1.523,0,0,0-.472-.377c-.5-.075-.3.42.076.945a6.428,6.428,0,0,0,.578.694l-7.958.155-.513.009c-.393.029-.771.023-.791-.425l-.011-2.053C32.118,14,32.2,7.4,32.227,4a4.162,4.162,0,0,1,.062-.912,1.061,1.061,0,0,1,1.167-.738,20.706,20.706,0,0,1,3.921.812,19.5,19.5,0,0,1,11.245,9.5c-.185-.173-.368-.34-.533-.484a4.367,4.367,0,0,0-.744-.572c-.639-.088-.062.681.718,1.486.39.4.831.814,1.2,1.133l.153.13a19.867,19.867,0,0,1,1.242,4.178.793.793,0,0,1-.76.96Z" transform="translate(-8.307)" fill="#fff"/>
      <path id="Path_161396" data-name="Path 161396" d="M33.775,35.763l-.632-.643-2.531-2.574c-2.421-2.431-6.53-6.573-8.947-8.92a.83.83,0,0,1-.351-.7c-.042-4.657-.108-12.05-.151-16.7l-.01-.914a2.011,2.011,0,0,0-2.47-1.878C8.034,4.325-.393,14.6.67,25.181,1.985,41.393,21.327,49.63,33.853,39.1a2.189,2.189,0,0,0-.078-3.334ZM33,38.1C21.256,48.43,2.47,40.725,1.249,25.136.355,15.55,7.531,6.184,17.032,4.662c.578-.1,1.164-.147,1.744-.224a1.021,1.021,0,0,1,1.145.357c.262.251.156,1.149.17,1.435l-.016,1.805c-.033,3.6-.1,10.844-.13,14.44l0,.451a2.251,2.251,0,0,0,.736,1.685c2.36,2.437,6.47,6.5,8.92,8.947l2.574,2.53.643.632a1.352,1.352,0,0,1,.394.478.8.8,0,0,1-.207.9Z" transform="translate(0 -0.506)" fill="#fff"/>
      <path id="Path_161397" data-name="Path 161397" d="M16.946,8.119A18.246,18.246,0,0,0,6.8,17.344a.41.41,0,0,0,.736.358,15.764,15.764,0,0,1,9.929-8.214.732.732,0,0,0-.52-1.369Z" transform="translate(-1.661 -1.766)" fill="#fff"/>
      <path id="Path_161398" data-name="Path 161398" d="M53.426,20.665l-.174-.2c-.434-.488-.889-.965-1.339-1.4-.27-.263-.529-.51-.771-.719a.188.188,0,0,0-.2-.037.143.143,0,0,0-.092.175,9.456,9.456,0,0,0,1.516,2.1l.2.229c.454.511.931,1.008,1.4,1.47.227.219.45.428.662.621.144.13.329.012.274-.109a10.044,10.044,0,0,0-1.483-2.128Z" transform="translate(-13.515 -4.515)" fill="#fff"/>
      <path id="Path_161399" data-name="Path 161399" d="M54.086,18.676c-.394-.422-.812-.838-1.2-1.2-.262-.243-.5-.456-.692-.608a.217.217,0,0,0-.164-.056c-.075.015-.123.052-.129.088-.06.328.524,1.055,1.2,1.793l.176.192c.4.431.828.855,1.225,1.224.208.194.406.368.578.515.132.11.275.078.262.027.232-.224-.363-1.006-1.1-1.807l-.156-.17Z" transform="translate(-13.798 -4.117)" fill="#fff"/>
    </g>
  </g>
</svg>
