<svg xmlns="http://www.w3.org/2000/svg" width="46" height="46" viewBox="0 0 46 46">
  <g id="Group_102710" data-name="Group 102710" transform="translate(1739 -13385)">
    <g id="_x37_1" transform="translate(-1740.559 13382.5)">
      <path id="Path_160678" data-name="Path 160678" d="M46.559,39.063c0-.091-.011-3.362-.01-3.271l-.012-3.737a.833.833,0,0,0-.108-.393c-.024-3.663-.035-3.988-.252-20.679a3.614,3.614,0,0,0-.8-2.455A3.435,3.435,0,0,0,43.1,7.29a11.343,11.343,0,0,0-1.212-.006l-3.475.074c-6.086.133-8.15.155-13.9.331,5.75.176,7.812.2,13.9.331l3.475.074c.38.013.8,0,1.1.049,3.222.492,1.928,4.59,2.139,7.475-.141,10.919-.162,11.921-.189,15.588-3.331.008-6.661.056-9.986.092-3.575.033-7.13.125-10.677.187l-10.554.269-9.637.28c-.033-6.064-.051-5.453-.186-16.415.21-2.885-1.084-6.982,2.136-7.473.3-.046.722-.036,1.1-.049l8.108-.174q4.633-.088,9.266-.234-4.633-.143-9.266-.234L7.137,7.281a11.3,11.3,0,0,0-1.212.006A3.444,3.444,0,0,0,3.646,8.529a3.617,3.617,0,0,0-.8,2.456l-.182,13.9c-.1,6.429-.073,8.025-.1,13.9v.294l.017.364a4.308,4.308,0,0,0,.142.716,3.828,3.828,0,0,0,3.16,2.692,11.917,11.917,0,0,0,1.259.039l3.475.015,13.9.058,11.112-.048,3.835.028,2.8.009.488,0a3.65,3.65,0,0,0,.6-.059,3.894,3.894,0,0,0,3.161-3.227A4.228,4.228,0,0,0,46.559,39.063ZM14.132,32.356l10.617.269c3.51.062,7.012.154,10.493.187,3.2.035,6.392.082,9.584.091l-.018,5.691,0,.465a2.509,2.509,0,0,1-.031.33,2.172,2.172,0,0,1-1.736,1.781,4.306,4.306,0,0,1-.776.04l-2.8.009-2.648.02-12.3-.039-18.429.057A2.236,2.236,0,0,1,4.226,39.7a2.784,2.784,0,0,1-.087-.418l-.012-.215L4.1,34.151c0-.692-.015-1.383-.019-2.075Z" fill="#fff"/>
      <path id="Path_160679" data-name="Path 160679" d="M24.607,41.725a2.064,2.064,0,0,0,.615.626,2.064,2.064,0,0,0,.615-.626c2.569-.019,5.138-.058,7.708-.188,2.774-.13,5.548-.321,8.322-.686-2.774-.365-5.548-.556-8.322-.686-2.568-.13-5.137-.169-7.705-.188a2.054,2.054,0,0,0-.617-.626,2.054,2.054,0,0,0-.617.626c-2.568.018-5.137.056-7.7.186-2.774.129-5.548.321-8.322.688,2.774.367,5.548.559,8.322.688C19.469,41.669,22.038,41.708,24.607,41.725Z" transform="translate(-0.71 -3.783)" fill="#fff"/>
      <path id="Path_160680" data-name="Path 160680" d="M22.756,23.77l-.043.564a2.559,2.559,0,0,0,.058.664,2.524,2.524,0,0,0,1.9,1.837,2.479,2.479,0,0,0,1.432-.1l.331-.15.248-.129.493-.258c1.32-.677,2.607-1.411,3.911-2.116l1.932-1.1a3.046,3.046,0,0,0,1.114-1.031,2.814,2.814,0,0,0,0-3.026A3.042,3.042,0,0,0,33.016,17.9l-1.932-1.1c-1.3-.707-2.59-1.441-3.909-2.119l-.492-.259-.247-.13-.333-.15a2.485,2.485,0,0,0-1.429-.1,2.519,2.519,0,0,0-1.9,1.835,2.57,2.57,0,0,0-.058.664l.042.563c.055.574.114,1.521.34,3.334.092-.741.175-1.482.243-2.223l.145-1.659a1.747,1.747,0,0,1,.112-.431,1.525,1.525,0,0,1,1.271-.949,1.445,1.445,0,0,1,.752.138l.166.1.232.151.467.3c1.238.819,2.507,1.584,3.762,2.374l1.9,1.148a1.262,1.262,0,0,1,.5.456,1.183,1.183,0,0,1,0,1.192,1.263,1.263,0,0,1-.5.458l-1.906,1.145c-1.255.79-2.526,1.551-3.764,2.37l-.467.3-.232.15-.166.1a1.422,1.422,0,0,1-.747.139,1.522,1.522,0,0,1-1.269-.948,1.731,1.731,0,0,1-.113-.43l-.049-.547-.1-1.111q-.1-1.111-.245-2.223c-.093.741-.176,1.482-.245,2.223Z" transform="translate(-2.376 -0.791)" fill="#fff"/>
    </g>
    <g id="Rectangle_30505" data-name="Rectangle 30505" transform="translate(-1739 13385)" fill="#fff" stroke="#707070" stroke-width="1" opacity="0">
      <rect width="46" height="46" stroke="none"/>
      <rect x="0.5" y="0.5" width="45" height="45" fill="none"/>
    </g>
  </g>
</svg>
